<?xml version="1.0" encoding="utf-8"?>
<!-- Generator: Adobe Illustrator 27.5.0, SVG Export Plug-In . SVG Version: 6.00 Build 0)  -->
<svg version="1.1" xmlns="http://www.w3.org/2000/svg" xmlns:xlink="http://www.w3.org/1999/xlink" x="0px" y="0px"
	 viewBox="0 0 500 500" style="enable-background:new 0 0 500 500;" xml:space="preserve">
<g id="Background">
</g>
<g id="Objects">
	<g>
		<g>
			<path style="fill:#D7EFF9;" d="M422.126,185.248c-9.529-19.711-28.64-36.124-55.724-41.932
				c-12.977-2.783-26.523-3.546-39.933-4.601c-21.083-1.659-42.84-4.289-60.515-13.207c-6.583-3.322-8.548-7.946-16.639-11.299
				c-6.902-2.861-13.911-5.561-21.351-7.524c-24.533-6.471-51.999-4.715-76.228,2.39c-24.23,7.104-45.466,19.254-63.907,33.185
				c-15.921,12.027-30.207,25.761-38.089,41.758c-4.915,9.976-7.227,20.618-7.951,31.26c-1.792,26.347,6.277,53.154,23.877,75.869
				c17.6,22.715,44.791,41.175,76.826,51.145c17.158,5.34,35.45,8.248,53.771,10.377c18.05,2.097,36.302,3.467,54.551,3.052
				c21.551-0.491,42.977-3.482,63.465-8.602c13.657-3.413,26.938-7.78,39.263-13.417c31.996-14.633,56.981-37.971,69.377-64.804
				C435.316,242.066,435.03,211.941,422.126,185.248z"/>
			<g>
				<path style="fill:#FFFFFF;" d="M248.213,120.517c0.2-0.512,0.602-1.141,1.125-0.973c0.212,0.068,0.359,0.257,0.481,0.443
					c1.5,2.281,0.984,5.66-1.128,7.389c2.346-0.026,4.453,2.243,4.254,4.581c-0.2,2.338-2.662,4.217-4.969,3.793
					c0.956,0.994,1.02,2.716,0.139,3.778c-0.881,1.061-2.585,1.317-3.739,0.561c0.471,0.514-0.183,1.309-0.834,1.559
					c-2.14,0.821-4.533-0.263-5.455-2.313c-1.033-2.298,0.049-3.508,1.534-5.142C243.281,130.171,246.235,125.593,248.213,120.517z"
					/>
				<path style="fill:#FFFFFF;" d="M192.885,120.517c-0.199-0.512-0.602-1.141-1.125-0.973c-0.212,0.068-0.359,0.257-0.481,0.443
					c-1.5,2.281-0.984,5.66,1.128,7.389c-2.346-0.026-4.453,2.243-4.254,4.581c0.2,2.338,2.662,4.217,4.969,3.793
					c-0.956,0.994-1.02,2.716-0.139,3.778c0.88,1.061,2.585,1.317,3.739,0.561c-0.471,0.514,0.183,1.309,0.834,1.559
					c2.14,0.821,4.533-0.263,5.455-2.313c1.033-2.298-0.049-3.508-1.534-5.142C197.818,130.171,194.863,125.593,192.885,120.517z"/>
				<g>
					<g>
						<path style="fill:#1F74C2;" d="M221.62,156.984l-0.216,4.173c-0.024,0.54-0.144,0.932-0.36,1.179
							c-0.216,0.245-0.564,0.368-1.043,0.368c-0.396,0-0.684-0.114-0.864-0.342c-0.18-0.228-0.27-0.594-0.27-1.097v-0.324
							l0.216-4.066c-0.492-0.084-0.965-0.225-1.421-0.423c-0.456-0.197-0.918-0.458-1.386-0.783
							c-0.168,0.277-0.354,0.48-0.557,0.611c-0.204,0.132-0.444,0.198-0.72,0.198c-0.48,0-0.857-0.159-1.133-0.477
							c-0.276-0.318-0.414-0.753-0.414-1.304v-2.501c0-0.432,0.135-0.785,0.404-1.062c0.27-0.276,0.627-0.413,1.071-0.413
							c0.696,0,1.199,0.468,1.511,1.403c0.084,0.288,0.155,0.487,0.216,0.594c0.252,0.444,0.842,0.849,1.772,1.214
							c0.929,0.366,1.886,0.549,2.87,0.549c1.127,0,2.036-0.263,2.726-0.791c0.69-0.528,1.035-1.212,1.035-2.052
							c0-0.744-0.246-1.352-0.738-1.826c-0.492-0.474-1.584-1.005-3.275-1.592l-3.149-1.062c-1.211-0.419-2.176-1.106-2.897-2.059
							c-0.719-0.953-1.079-2.024-1.079-3.212c0-1.546,0.537-2.794,1.61-3.742c1.073-0.947,2.564-1.494,4.471-1.637l0.072-1.368
							c0.036-0.492,0.168-0.86,0.396-1.106c0.228-0.246,0.54-0.369,0.936-0.369c0.407,0,0.719,0.111,0.935,0.333
							c0.216,0.222,0.324,0.543,0.324,0.962v0.216l-0.108,1.439c0.444,0.121,0.879,0.256,1.304,0.406
							c0.426,0.15,0.837,0.321,1.232,0.513c0.18-0.216,0.36-0.376,0.54-0.477c0.18-0.102,0.378-0.154,0.594-0.154
							c0.408,0,0.701,0.111,0.882,0.333c0.18,0.222,0.27,0.603,0.27,1.142v2.213c0,0.444-0.108,0.784-0.324,1.017
							s-0.528,0.351-0.935,0.351c-0.6,0-1.068-0.372-1.403-1.116c-0.072-0.191-0.132-0.336-0.18-0.432
							c-0.24-0.479-0.684-0.857-1.332-1.133c-0.648-0.276-1.41-0.414-2.285-0.414c-1.211,0-2.183,0.258-2.915,0.774
							c-0.731,0.517-1.097,1.201-1.097,2.052c0,0.684,0.227,1.274,0.683,1.772c0.456,0.498,1.128,0.89,2.015,1.178l3.454,1.152
							c1.752,0.564,3.038,1.304,3.859,2.221c0.821,0.917,1.232,2.067,1.232,3.446c0,1.571-0.585,2.854-1.754,3.85
							C225.228,156.306,223.635,156.864,221.62,156.984z"/>
					</g>
					<path style="fill:#1F74C2;" d="M220.802,168.648c-11.283,0-20.462-9.179-20.462-20.462s9.179-20.462,20.462-20.462
						c11.283,0,20.462,9.179,20.462,20.462S232.085,168.648,220.802,168.648z M220.802,129.001
						c-10.578,0-19.184,8.606-19.184,19.184c0,10.578,8.606,19.184,19.184,19.184c10.578,0,19.184-8.606,19.184-19.184
						C239.986,137.607,231.38,129.001,220.802,129.001z"/>
				</g>
			</g>
			<g>
				<path style="fill:#D7EFF9;" d="M449.249,162.585c0.026-0.289,0.139-0.667,0.429-0.659c0.118,0.003,0.22,0.078,0.309,0.154
					c1.096,0.939,1.328,2.73,0.509,3.918c1.188-0.357,2.59,0.487,2.831,1.704c0.241,1.216-0.734,2.531-1.968,2.654
					c0.631,0.365,0.915,1.23,0.624,1.898c-0.292,0.668-1.12,1.048-1.817,0.832c0.315,0.192,0.099,0.692-0.195,0.914
					c-0.967,0.73-2.341,0.53-3.109-0.376c-0.861-1.016-0.489-1.789,0.027-2.836C448.158,168.21,448.988,165.453,449.249,162.585z"/>
				<path style="fill:#D7EFF9;" d="M421.15,170.684c-0.176-0.231-0.473-0.491-0.714-0.329c-0.098,0.065-0.145,0.183-0.18,0.295
					c-0.428,1.378,0.329,3.018,1.654,3.587c-1.195,0.33-1.933,1.791-1.49,2.949c0.444,1.158,1.969,1.752,3.079,1.199
					c-0.34,0.645-0.12,1.529,0.482,1.939s1.506,0.291,1.981-0.262c-0.164,0.33,0.285,0.638,0.652,0.67
					c1.207,0.104,2.264-0.797,2.432-1.973c0.189-1.318-0.538-1.775-1.532-2.387C425.068,174.865,422.898,172.973,421.15,170.684z"/>
				<g>
					<g>
						<path style="fill:#1F74C2;" d="M441.082,184.999l0.501,2.151c0.067,0.278,0.063,0.495-0.01,0.652
							c-0.074,0.156-0.233,0.27-0.476,0.34c-0.201,0.058-0.364,0.042-0.489-0.047c-0.125-0.09-0.224-0.262-0.298-0.518l-0.048-0.165
							l-0.486-2.097c-0.262,0.029-0.523,0.027-0.784-0.007c-0.261-0.033-0.533-0.098-0.818-0.195
							c-0.045,0.165-0.109,0.296-0.194,0.392c-0.084,0.097-0.197,0.166-0.337,0.206c-0.244,0.07-0.459,0.045-0.645-0.076
							c-0.187-0.121-0.32-0.322-0.401-0.602l-0.366-1.27c-0.063-0.219-0.047-0.418,0.05-0.599c0.097-0.18,0.258-0.302,0.483-0.367
							c0.353-0.102,0.678,0.062,0.973,0.491c0.085,0.134,0.15,0.225,0.197,0.27c0.193,0.189,0.552,0.308,1.078,0.357
							c0.525,0.05,1.038,0.003,1.538-0.141c0.572-0.165,0.995-0.432,1.268-0.801c0.273-0.369,0.348-0.767,0.225-1.193
							c-0.109-0.378-0.323-0.65-0.642-0.819c-0.319-0.169-0.951-0.278-1.896-0.329l-1.755-0.078
							c-0.677-0.036-1.267-0.243-1.773-0.622c-0.505-0.379-0.845-0.87-1.018-1.473c-0.226-0.785-0.137-1.498,0.27-2.136
							c0.406-0.638,1.083-1.134,2.031-1.486l-0.164-0.705c-0.054-0.255-0.041-0.461,0.039-0.62c0.08-0.158,0.22-0.267,0.421-0.325
							c0.207-0.06,0.382-0.049,0.524,0.032c0.142,0.081,0.244,0.228,0.305,0.441l0.032,0.11l0.156,0.747
							c0.243-0.003,0.484,0.001,0.722,0.015c0.238,0.014,0.472,0.04,0.701,0.08c0.06-0.136,0.128-0.243,0.204-0.321
							c0.077-0.078,0.17-0.133,0.279-0.165c0.207-0.06,0.372-0.046,0.497,0.04c0.124,0.087,0.225,0.267,0.304,0.54l0.324,1.124
							c0.065,0.226,0.06,0.414-0.016,0.564c-0.076,0.15-0.217,0.255-0.424,0.315c-0.305,0.088-0.597-0.033-0.876-0.361
							c-0.064-0.087-0.116-0.151-0.155-0.193c-0.192-0.208-0.473-0.335-0.842-0.381c-0.369-0.045-0.776-0.004-1.221,0.124
							c-0.615,0.177-1.071,0.451-1.367,0.82c-0.296,0.369-0.381,0.77-0.257,1.203c0.1,0.347,0.302,0.614,0.606,0.8
							c0.304,0.186,0.703,0.287,1.196,0.303l1.923,0.079c0.972,0.03,1.734,0.218,2.285,0.563c0.551,0.346,0.928,0.869,1.13,1.57
							c0.23,0.798,0.121,1.535-0.327,2.212C442.815,184.126,442.088,184.643,441.082,184.999z"/>
					</g>
					<path style="fill:#1F74C2;" d="M442.374,191.042c-5.73,1.652-11.736-1.666-13.388-7.397c-1.652-5.73,1.666-11.736,7.397-13.388
						c5.73-1.652,11.736,1.666,13.388,7.397C451.422,183.385,448.104,189.39,442.374,191.042z M436.57,170.907
						c-5.372,1.548-8.483,7.179-6.935,12.551c1.548,5.372,7.179,8.483,12.551,6.935c5.372-1.549,8.483-7.179,6.935-12.551
						C447.573,172.469,441.942,169.358,436.57,170.907z"/>
				</g>
			</g>
			<g>
				<path style="fill:#FFFFFF;" d="M98.571,224.209c0.144-0.371,0.435-0.825,0.814-0.704c0.153,0.049,0.26,0.186,0.348,0.32
					c1.085,1.65,0.712,4.095-0.816,5.347c1.698-0.019,3.223,1.623,3.078,3.315c-0.145,1.692-1.926,3.051-3.596,2.744
					c0.692,0.719,0.738,1.966,0.101,2.734c-0.637,0.768-1.871,0.953-2.705,0.406c0.341,0.372-0.132,0.948-0.604,1.128
					c-1.548,0.594-3.281-0.191-3.947-1.674c-0.748-1.663,0.035-2.539,1.11-3.721C95.001,231.195,97.139,227.883,98.571,224.209z"/>
				<path style="fill:#FFFFFF;" d="M58.533,224.209c-0.144-0.371-0.435-0.825-0.814-0.704c-0.153,0.049-0.26,0.186-0.348,0.32
					c-1.085,1.65-0.712,4.095,0.816,5.347c-1.698-0.019-3.223,1.623-3.078,3.315c0.145,1.692,1.926,3.051,3.596,2.744
					c-0.692,0.719-0.738,1.966-0.101,2.734c0.637,0.768,1.871,0.953,2.706,0.406c-0.341,0.372,0.132,0.948,0.604,1.128
					c1.548,0.594,3.281-0.191,3.947-1.674c0.748-1.663-0.035-2.539-1.11-3.721C62.102,231.195,59.964,227.883,58.533,224.209z"/>
				<g>
					<g>
						<path style="fill:#1F74C2;" d="M79.327,250.598l-0.156,3.02c-0.018,0.391-0.104,0.675-0.261,0.853
							c-0.156,0.177-0.408,0.266-0.755,0.266c-0.287,0-0.495-0.082-0.625-0.247c-0.131-0.165-0.195-0.43-0.195-0.794v-0.235
							l0.156-2.942c-0.356-0.061-0.699-0.162-1.028-0.306c-0.33-0.143-0.664-0.332-1.003-0.566
							c-0.121,0.201-0.256,0.348-0.403,0.442c-0.148,0.096-0.322,0.144-0.521,0.144c-0.347,0-0.62-0.115-0.82-0.345
							c-0.2-0.23-0.299-0.544-0.299-0.944v-1.81c0-0.313,0.098-0.568,0.293-0.769c0.195-0.199,0.454-0.299,0.775-0.299
							c0.503,0,0.868,0.339,1.094,1.015c0.061,0.209,0.112,0.352,0.156,0.43c0.183,0.322,0.61,0.614,1.283,0.879
							c0.672,0.265,1.365,0.397,2.077,0.397c0.815,0,1.473-0.191,1.972-0.573c0.499-0.382,0.749-0.877,0.749-1.485
							c0-0.538-0.178-0.978-0.534-1.321c-0.356-0.343-1.146-0.727-2.37-1.152l-2.279-0.769c-0.877-0.303-1.575-0.8-2.096-1.49
							c-0.521-0.69-0.781-1.465-0.781-2.325c0-1.119,0.388-2.022,1.165-2.708c0.777-0.685,1.855-1.081,3.235-1.185l0.052-0.99
							c0.026-0.356,0.121-0.622,0.286-0.8c0.165-0.178,0.391-0.267,0.677-0.267c0.295,0,0.521,0.08,0.677,0.241
							c0.156,0.161,0.234,0.393,0.234,0.696v0.156l-0.078,1.041c0.321,0.088,0.636,0.185,0.944,0.294
							c0.308,0.108,0.605,0.232,0.892,0.371c0.131-0.156,0.261-0.272,0.391-0.345c0.131-0.074,0.274-0.111,0.43-0.111
							c0.295,0,0.507,0.08,0.638,0.241c0.13,0.161,0.195,0.436,0.195,0.826v1.601c0,0.321-0.078,0.567-0.234,0.736
							c-0.156,0.169-0.382,0.254-0.677,0.254c-0.434,0-0.773-0.269-1.016-0.807c-0.052-0.138-0.096-0.243-0.13-0.312
							c-0.174-0.347-0.495-0.62-0.964-0.82c-0.469-0.2-1.02-0.3-1.654-0.3c-0.877,0-1.579,0.187-2.109,0.56
							c-0.529,0.374-0.794,0.869-0.794,1.485c0,0.495,0.164,0.922,0.494,1.283c0.33,0.36,0.816,0.644,1.458,0.852l2.5,0.834
							c1.267,0.408,2.198,0.944,2.793,1.607c0.594,0.664,0.892,1.495,0.892,2.493c0,1.137-0.423,2.065-1.269,2.786
							C81.937,250.108,80.785,250.512,79.327,250.598z"/>
					</g>
					<path style="fill:#1F74C2;" d="M78.734,259.039c-8.165,0-14.807-6.642-14.807-14.807c0-8.165,6.642-14.807,14.807-14.807
						c8.165,0,14.807,6.642,14.807,14.807C93.542,252.397,86.899,259.039,78.734,259.039z M78.734,230.349
						c-7.655,0-13.882,6.228-13.882,13.882c0,7.655,6.228,13.883,13.882,13.883s13.882-6.228,13.882-13.883
						C92.617,236.577,86.389,230.349,78.734,230.349z"/>
				</g>
			</g>
		</g>
		<g>
			<g>
				<path style="fill:#8CB1F4;" d="M382.534,241.524c0,0,9.215,21.626,8.274,36.482c-0.94,14.856-12.412,24.071-18.617,29.713
					c-6.206,5.642-36.482,33.097-41.184,36.858c-4.701,3.761-7.522,5.077-15.985,6.582c-8.462,1.504-13.352,3.009-31.029-4.701
					c-17.677-7.71-80.299-15.42-133.142,13.728c0,0-25.763,16.361-39.115,16.173c-13.352-0.188-19.369-2.257-27.832-10.343
					c-8.462-8.086-20.122-21.438-23.507-30.841c0,0-3.949-16.925-2.445-28.396c1.504-11.471,0.94-16.925,22.754-26.892
					c21.814-9.967,97.6-44.945,167.556-55.664c0,0,74.469-7.334,88.009-2.069C349.812,227.42,379.149,237.763,382.534,241.524z"/>
				<path style="fill:#588EDD;" d="M165.915,250.343c0,0-55.975,20.63-78.059,34.756c0,0-11.538,5.21-11.538,8.8
					c0,3.59,2.978,15.997,17.369,19.967c0,0,7.32,2.978,14.64-0.62c7.32-3.598,96.524-39.438,96.524-39.438
					S174.868,262.13,165.915,250.343z"/>
				<path style="fill:#4680C6;" d="M168.914,253.615c-24.678,12.22-51.803,19.541-75.636,33.425
					c-5.179,3.017-10.807,7.504-10.388,13.483c0.344,4.912,4.601,8.253,8.447,10.674c1.655,1.042,3.876,2.112,5.645,3.526
					c2.817,0.48,7.075,0.62,11.344-1.478c7.32-3.598,96.524-39.438,96.524-39.438S180.181,264.198,168.914,253.615z"/>
				<path style="fill:#588EDD;" d="M208.248,272.532c0,0-26.755-8.589-38.997-23.497c0,0,57.557-21.522,91.42-23.102l41.169,17.573
					C301.84,243.507,221.477,265.325,208.248,272.532z"/>
				<path style="fill:#2D598E;" d="M82.927,337.003c0,0-0.074,5.57,0,9.134c0,0-13.664-7.797-19.085-15.595
					c-5.421-7.797-4.084-10.099-4.084-10.099l0.817-4.901C60.575,315.541,69.635,327.794,82.927,337.003z"/>
				<path style="fill:#153351;" d="M62.165,317.559l0.296,4.192c0,0,8.697,14.858,20.436,19.017c0.008-2.094,0.03-3.765,0.03-3.765
					C72.921,330.07,65.315,321.415,62.165,317.559z"/>
				<path style="fill:#2D598E;" d="M298.31,243.283l-37.866-16.161l-13.429,1.483c0,0,24.672,12.804,42.16,16.942L298.31,243.283z"
					/>
				<path style="fill:#153351;" d="M294.982,244.108l-34.851-14.875l-9.726,1.074c7.353,3.622,25.215,12.032,38.771,15.24
					L294.982,244.108z"/>
				<path style="fill:#74A1E2;" d="M278.358,225.653l30.93,13.754c0,0,39.199-4.044,62.532-1.478l-37.564-15.071
					c-0.681-0.273-1.4-0.433-2.132-0.477c-5.732-0.34-32.363-1.669-53.531,1.515C277.682,224.034,277.516,225.278,278.358,225.653z"
					/>
				<path style="fill:#85B4ED;" d="M255.538,254.408c0,0-36.816,11.443-45.689,15.34l-34.163-20.515l42.04-13.482L255.538,254.408z"
					/>
				<path style="fill:#A7A9AC;" d="M165.915,274.419l6.108,0.258l1.051-0.383c0.232-0.085,0.489-0.066,0.706,0.05l0.83,0.443
					l5.485,0.231v3.38l-0.02-0.001c-0.063,0.329-0.305,0.625-0.701,0.697c-6.357,1.154-10.664,0.109-12.92-0.778
					c-0.346-0.136-0.518-0.442-0.533-0.755l-0.007,0V274.419z"/>
				<path style="fill:#D1D3D4;" d="M173.074,271.18l-6.585,2.401c-0.746,0.272-0.773,1.329-0.034,1.62
					c2.256,0.887,6.563,1.933,12.92,0.778c0.813-0.148,0.991-1.237,0.262-1.626l-5.857-3.124
					C173.562,271.113,173.305,271.095,173.074,271.18z"/>
				<path style="fill:#A7A9AC;" d="M149.702,281.098l6.108,0.258l1.051-0.383c0.232-0.085,0.489-0.066,0.706,0.05l0.83,0.443
					l5.485,0.231v3.379l-0.02-0.001c-0.063,0.329-0.305,0.625-0.701,0.697c-6.357,1.154-10.664,0.109-12.92-0.778
					c-0.346-0.136-0.518-0.442-0.532-0.755l-0.007,0V281.098z"/>
				<path style="fill:#D1D3D4;" d="M156.861,277.858l-6.585,2.401c-0.746,0.272-0.773,1.329-0.034,1.62
					c2.256,0.887,6.563,1.933,12.92,0.778c0.813-0.148,0.991-1.237,0.262-1.626l-5.857-3.124
					C157.349,277.792,157.092,277.774,156.861,277.858z"/>
				<path style="fill:#A7A9AC;" d="M117.35,295.745l6.108,0.258l1.051-0.383c0.232-0.084,0.489-0.066,0.706,0.05l0.83,0.443
					l5.485,0.231v3.38l-0.02-0.001c-0.063,0.329-0.305,0.625-0.701,0.697c-6.357,1.155-10.664,0.109-12.92-0.779
					c-0.346-0.136-0.518-0.442-0.533-0.755l-0.007-0.001V295.745z"/>
				<path style="fill:#D1D3D4;" d="M124.509,292.505l-6.585,2.401c-0.746,0.272-0.773,1.329-0.034,1.62
					c2.256,0.887,6.563,1.933,12.92,0.778c0.813-0.148,0.991-1.237,0.262-1.626l-5.857-3.124
					C124.998,292.439,124.741,292.421,124.509,292.505z"/>
				<path style="fill:#A7A9AC;" d="M133.863,288.392l6.108,0.258l1.051-0.383c0.232-0.085,0.489-0.066,0.706,0.05l0.83,0.443
					l5.485,0.231v3.38l-0.02-0.001c-0.063,0.329-0.306,0.625-0.701,0.697c-6.357,1.155-10.664,0.109-12.92-0.779
					c-0.346-0.136-0.518-0.442-0.533-0.755l-0.007-0.001V288.392z"/>
				<path style="fill:#D1D3D4;" d="M141.022,285.152l-6.585,2.401c-0.746,0.272-0.773,1.329-0.034,1.62
					c2.256,0.887,6.563,1.933,12.92,0.778c0.813-0.148,0.991-1.237,0.262-1.626l-5.857-3.124
					C141.51,285.086,141.254,285.067,141.022,285.152z"/>
				<path style="fill:#A7A9AC;" d="M150.293,265.095l0.005-0.144c-0.005-0.141-0.001-0.283,0.014-0.426l0.094-2.893l1.787,0.247
					c0.491-0.322,1.088-0.63,1.825-0.917l1.704,1.404l3.517,0.486v2.412l-7.047,3.248c0,0-1.712-1.544-1.882-3.386L150.293,265.095z
					"/>
				<path style="fill:#A7A9AC;" d="M169.624,268.513v3.031c0,0-6.031,4.816-11.056,1.885c0,0-2.397-1.089-1.979-5.319
					L169.624,268.513z"/>
				<path style="fill:#A7A9AC;" d="M134.316,271.165l0.005-0.144c-0.005-0.141-0.001-0.283,0.014-0.426l0.094-2.893l1.787,0.247
					c0.491-0.322,1.088-0.63,1.824-0.917l1.704,1.404l3.517,0.486v2.412l-7.047,3.248c0,0-1.712-1.544-1.882-3.385L134.316,271.165z
					"/>
				<path style="fill:#A7A9AC;" d="M153.647,274.583v3.032c0,0-6.031,4.816-11.056,1.885c0,0-2.397-1.089-1.979-5.319
					L153.647,274.583z"/>
				<path style="fill:#A7A9AC;" d="M118.77,277.578l0.005-0.144c-0.005-0.141-0.001-0.283,0.014-0.426l0.094-2.893l1.787,0.247
					c0.491-0.322,1.088-0.63,1.825-0.917l1.704,1.404l3.517,0.486v2.412l-7.047,3.248c0,0-1.712-1.544-1.882-3.386L118.77,277.578z"
					/>
				<path style="fill:#A7A9AC;" d="M138.101,280.995v3.032c0,0-6.031,4.816-11.056,1.885c0,0-2.397-1.089-1.979-5.319
					L138.101,280.995z"/>
				<path style="fill:#A7A9AC;" d="M102.851,284.351l0.005-0.144c-0.005-0.141-0.001-0.283,0.014-0.426l0.094-2.893l1.787,0.247
					c0.491-0.322,1.088-0.63,1.824-0.917l1.704,1.404l3.517,0.486v2.412l-7.047,3.248c0,0-1.712-1.544-1.882-3.386L102.851,284.351z
					"/>
				<path style="fill:#A7A9AC;" d="M122.183,287.769v3.032c0,0-6.031,4.816-11.056,1.885c0,0-2.397-1.089-1.979-5.319
					L122.183,287.769z"/>
				<path style="fill:#B22D2D;" d="M86.496,292.894l0.005-0.144c-0.005-0.141-0.001-0.283,0.014-0.426l0.094-2.893l1.787,0.247
					c0.491-0.322,1.088-0.63,1.825-0.916l1.704,1.404l3.517,0.486v2.412l-7.047,3.248c0,0-1.712-1.544-1.882-3.385L86.496,292.894z"
					/>
				<path style="fill:#FF4D4D;" d="M95.441,290.651l-7.047,3.248c0,0-5.306-4.777,1.826-7.551L95.441,290.651z"/>
				<path style="fill:#588EDD;" d="M123.242,312.598c35.997-16.344,109.687-46.213,170.552-63.365
					c45.081-12.704,75.626-10.165,88.439-7.994c0.11,0.097,0.219,0.194,0.3,0.284c0,0,9.215,21.626,8.274,36.482
					c-0.94,14.856-12.411,24.071-18.617,29.713c-6.206,5.642-36.482,33.097-41.184,36.858c-4.701,3.761-7.522,5.077-15.985,6.582
					c-8.462,1.504-13.352,3.009-31.029-4.701c-17.677-7.71-80.299-15.42-133.142,13.728c0,0-25.763,16.361-39.115,16.173
					c-8.971-0.126-14.629-1.112-19.944-4.191C73.061,316.665,90.8,327.327,123.242,312.598z"/>
				<path style="fill:#4079BF;" d="M111.736,376.358c13.352,0.188,39.115-16.173,39.115-16.173
					c52.843-29.148,115.465-21.438,133.142-13.728c17.677,7.71,22.566,6.206,31.029,4.701c8.462-1.505,11.283-2.821,15.985-6.582
					c4.701-3.761,34.978-31.217,41.184-36.858c6.206-5.642,17.677-14.856,18.617-29.713c0.94-14.856-8.274-36.482-8.274-36.482
					c-0.081-0.09-0.19-0.187-0.3-0.285c-5.91-1.001-15.6-2.077-28.74-1.704c0.301,1.017,0.568,2.034,0.761,3.054
					c1.178,6.215,0.523,12.783-1.738,18.682c-2.501,6.527-7.065,12.307-13.274,15.644c-6.224,3.345-13.363,4.462-20.078,6.662
					c-6.715,2.199-13.517,5.98-16.384,12.437c-1.397,3.146-1.728,6.651-2.739,9.942c-3.986,12.971-17.941,20.532-31.395,22.291
					c-13.455,1.76-27.055-0.881-40.619-1.254c-23.293-0.641-46.733,5.599-66.624,17.735c-11.57,7.059-21.954,16.048-34.033,22.194
					c-10.986,5.59-24.154,8.579-35.716,4.827c0.047,0.141,0.091,0.276,0.139,0.418C97.107,375.247,102.765,376.232,111.736,376.358z
					"/>
				<path style="fill:#BCBEC0;" d="M305.397,295.648l50.19,27.103c7.313-6.598,14.03-12.692,16.604-15.032
					c0.863-0.784,1.83-1.641,2.854-2.569l1.414-2.914L305.397,295.648z"/>
				<path style="fill:#3266A5;" d="M390.814,277.854c-9.107,3.315-21.572,4.473-38.688,6.055
					c-14.374,1.329-32.263,2.981-53.897,6.556c-78.669,12.996-156.02,48.278-170.728,55.22
					c-21.599,10.194-35.368,7.984-41.737,5.706c0.086,0.392,0.172,0.784,0.265,1.187c1.738,0.583,3.925,1.135,6.6,1.465
					c1.491,0.184,3.196,0.303,5.114,0.303c7.152,0,17.254-1.655,30.184-7.757c14.686-6.931,91.926-42.163,170.463-55.138
					c21.601-3.568,39.469-5.219,53.827-6.546c16.585-1.533,29.152-2.698,38.515-6.03c0.027-0.289,0.056-0.576,0.075-0.869
					C390.811,277.956,390.812,277.904,390.814,277.854z"/>
				<path style="fill:#D1D3D4;" d="M169.624,268.319l-7.43-4.604c0,0-8.525,3.273-4.547,6.032
					C161.625,272.507,166.064,270.246,169.624,268.319z"/>
				<path style="fill:#D1D3D4;" d="M159.237,262.852l-7.047,3.248c0,0-5.306-4.777,1.826-7.551L159.237,262.852z"/>
				<path style="fill:#D1D3D4;" d="M153.647,274.39l-7.43-4.604c0,0-8.525,3.273-4.547,6.032
					C145.648,278.578,150.087,276.316,153.647,274.39z"/>
				<path style="fill:#D1D3D4;" d="M143.26,268.922l-7.047,3.248c0,0-5.306-4.777,1.826-7.551L143.26,268.922z"/>
				<path style="fill:#D1D3D4;" d="M138.101,280.802l-7.43-4.604c0,0-8.525,3.273-4.547,6.032S134.541,282.729,138.101,280.802z"/>
				<path style="fill:#D1D3D4;" d="M127.714,275.335l-7.047,3.248c0,0-5.306-4.777,1.826-7.551L127.714,275.335z"/>
				<path style="fill:#D1D3D4;" d="M122.183,287.576l-7.43-4.604c0,0-8.525,3.273-4.547,6.032
					C114.184,291.764,118.623,289.502,122.183,287.576z"/>
				<path style="fill:#D1D3D4;" d="M111.796,282.109l-7.047,3.248c0,0-5.306-4.777,1.826-7.551L111.796,282.109z"/>
				<path style="fill:#A7A9AC;" d="M105.828,296.311v3.032c0,0-6.031,4.816-11.056,1.885c0,0-2.397-1.089-1.979-5.319
					L105.828,296.311z"/>
				<path style="fill:#7AA537;" d="M100.021,303.344l6.108,0.258l1.051-0.383c0.232-0.085,0.489-0.066,0.706,0.05l0.83,0.443
					l5.485,0.231v3.38l-0.02-0.001c-0.063,0.329-0.305,0.625-0.701,0.697c-6.357,1.155-10.664,0.109-12.92-0.779
					c-0.347-0.136-0.518-0.442-0.532-0.755l-0.007,0V303.344z"/>
				<path style="fill:#8DC63F;" d="M107.179,300.104l-6.585,2.401c-0.746,0.272-0.773,1.329-0.034,1.62
					c2.256,0.888,6.563,1.933,12.92,0.779c0.813-0.148,0.991-1.237,0.262-1.626l-5.857-3.124
					C107.668,300.038,107.411,300.019,107.179,300.104z"/>
				<path style="fill:#D1D3D4;" d="M105.828,296.329l-7.43-4.604c0,0-8.526,3.273-4.547,6.032
					C97.829,300.517,102.268,298.255,105.828,296.329z"/>
				<path style="fill:#4079BF;" d="M275.316,307.852c-2.169,2.68-3.403,6.102-3.445,9.55c-0.008,0.644,0.028,1.303,0.267,1.901
					c0.695,1.733,2.808,2.381,4.669,2.53c6.888,0.55,13.945-3.066,17.522-8.978c1.4-2.313,2.223-5.451,0.585-7.602
					c-0.746-0.98-1.886-1.577-3.027-2.041C286.029,300.824,279.247,302.993,275.316,307.852z"/>
				<path style="fill:#4079BF;" d="M261.274,319.748c-1.322,1.939-1.314,5.217,0.928,6.459c0.529,0.293,1.131,0.424,1.728,0.518
					c1.214,0.192,2.494,0.242,3.638-0.208c1.482-0.583,2.587-2.03,2.757-3.613c0.28-2.599-1.551-4.057-3.708-4.909
					c-2.006-0.791-3.72-0.283-5.14,1.48C261.406,319.562,261.339,319.654,261.274,319.748z"/>
				<path style="fill:#D1D3D4;" d="M300.656,228.664l-2.346,1.948v-2.87l-2.386,1.229l-0.369-2.581l-1.659,1.106l-0.553-1.967
					l-2.52,1.291v-2.397l-2.213,1.511v-2.74l-2.09,1.475l-0.307-2.307l-2.582,1.2v-2.704l-2.458,1.504v-2.111l-2.151,1.16
					l-0.369-2.151l-2.336,0.738l-0.492-2.028l-1.782,1.352l-0.676-2.397l-1.844,1.168l-0.553-2.151l-2.151,1.168v-1.967
					l-2.889,1.106l-0.676-2.151l-2.09,1.168l-0.738-1.844l-2.52,0.922l-1.229-1.659c-3.441,6.512-4.695,19.347-4.696,19.357
					c8.592,4.097,23.495,10.739,35.193,13.507l2.702-0.67c1.051-5.531,9.086-13.694,9.086-13.694L300.656,228.664z"/>
			</g>
			
				<path style="fill:none;stroke:#153351;stroke-linecap:round;stroke-linejoin:round;stroke-miterlimit:10;stroke-dasharray:2.8347;" d="
				M217.407,245.547c0,0-13.988-63.389,42.971-63.389"/>
			<g>
				
					<ellipse transform="matrix(0.6249 -0.7807 0.7807 0.6249 -34.3124 292.9033)" style="fill:#8DC63F;" cx="287.652" cy="182.159" rx="25.631" ry="25.631"/>
				
					<ellipse transform="matrix(0.7071 -0.7071 0.7071 0.7071 -44.5542 256.7538)" style="fill:none;stroke:#153351;stroke-width:0.5669;stroke-linecap:round;stroke-linejoin:round;stroke-miterlimit:10;" cx="287.652" cy="182.159" rx="22.301" ry="22.301"/>
				
					<path style="fill:none;stroke:#153351;stroke-width:5.6693;stroke-linecap:round;stroke-linejoin:round;stroke-miterlimit:10;" d="
					M276.126,185.532l7.39,8.675c0,0,2.57-17.511,15.663-24.098"/>
			</g>
			<g>
				<path style="fill:#FFFFFF;" d="M175.109,199.14H69.256c-2.426,0-4.412-1.985-4.412-4.412v-33.571
					c0-2.426,1.985-4.412,4.412-4.412h105.853c2.426,0,4.412,1.985,4.412,4.412v33.571
					C179.521,197.155,177.535,199.14,175.109,199.14z"/>
				<g>
					<path style="fill:#98C4E5;" d="M175.109,156.746H69.256c-2.426,0-4.412,1.985-4.412,4.412v2.978h114.676v-2.978
						C179.521,158.731,177.535,156.746,175.109,156.746z"/>
					<circle style="fill:#FFFFFF;" cx="70.177" cy="160.441" r="1.812"/>
					<circle style="fill:#FFFFFF;" cx="75.538" cy="160.441" r="1.812"/>
					<circle style="fill:#FFFFFF;" cx="80.9" cy="160.441" r="1.812"/>
				</g>
				<path style="fill:none;stroke:#1F74C2;stroke-miterlimit:10;" d="M175.109,199.14H69.256c-2.426,0-4.412-1.985-4.412-4.412
					v-33.571c0-2.426,1.985-4.412,4.412-4.412h105.853c2.426,0,4.412,1.985,4.412,4.412v33.571
					C179.521,197.155,177.535,199.14,175.109,199.14z"/>
				<g>
					<g>
						<path style="fill:#98C4E5;" d="M160.331,186.537l-0.135,2.615c-0.015,0.339-0.09,0.584-0.226,0.739
							c-0.135,0.153-0.353,0.231-0.654,0.231c-0.248,0-0.428-0.071-0.541-0.214c-0.113-0.143-0.169-0.372-0.169-0.687v-0.203
							l0.135-2.548c-0.308-0.052-0.605-0.141-0.89-0.265c-0.286-0.124-0.575-0.287-0.868-0.49c-0.105,0.174-0.222,0.301-0.349,0.383
							c-0.128,0.083-0.278,0.124-0.451,0.124c-0.301,0-0.537-0.099-0.71-0.299c-0.173-0.199-0.259-0.471-0.259-0.817v-1.567
							c0-0.271,0.084-0.492,0.253-0.665c0.169-0.173,0.393-0.259,0.671-0.259c0.436,0,0.751,0.293,0.947,0.879
							c0.052,0.181,0.097,0.305,0.135,0.372c0.158,0.278,0.528,0.532,1.11,0.761c0.582,0.229,1.181,0.344,1.798,0.344
							c0.706,0,1.275-0.165,1.708-0.496c0.432-0.331,0.648-0.759,0.648-1.286c0-0.466-0.154-0.847-0.462-1.144
							c-0.308-0.297-0.992-0.63-2.052-0.998l-1.973-0.665c-0.759-0.263-1.364-0.693-1.815-1.29
							c-0.451-0.598-0.676-1.268-0.676-2.013c0-0.969,0.336-1.751,1.009-2.344c0.672-0.593,1.607-0.936,2.801-1.026l0.045-0.857
							c0.023-0.308,0.105-0.539,0.248-0.693c0.143-0.154,0.338-0.231,0.586-0.231c0.255,0,0.451,0.07,0.586,0.209
							c0.135,0.139,0.203,0.34,0.203,0.603v0.135l-0.068,0.902c0.278,0.076,0.55,0.16,0.817,0.254
							c0.267,0.094,0.524,0.201,0.772,0.321c0.113-0.135,0.226-0.235,0.338-0.299c0.113-0.064,0.237-0.096,0.372-0.096
							c0.255,0,0.439,0.07,0.552,0.209c0.113,0.139,0.169,0.378,0.169,0.715v1.386c0,0.278-0.068,0.491-0.203,0.637
							c-0.135,0.146-0.331,0.22-0.586,0.22c-0.376,0-0.669-0.233-0.879-0.699c-0.045-0.12-0.083-0.21-0.113-0.271
							c-0.151-0.3-0.428-0.537-0.834-0.71c-0.406-0.173-0.883-0.26-1.432-0.26c-0.759,0-1.368,0.162-1.826,0.485
							c-0.458,0.324-0.687,0.752-0.687,1.286c0,0.428,0.142,0.798,0.428,1.11c0.285,0.312,0.706,0.558,1.262,0.738l2.164,0.722
							c1.098,0.353,1.903,0.817,2.418,1.392c0.515,0.575,0.772,1.295,0.772,2.159c0,0.984-0.366,1.788-1.099,2.412
							C162.591,186.112,161.593,186.462,160.331,186.537z"/>
					</g>
					<path style="fill:#98C4E5;" d="M159.818,193.845c-7.07,0-12.821-5.751-12.821-12.821c0-7.07,5.751-12.821,12.821-12.821
						c7.07,0,12.821,5.751,12.821,12.821C172.639,188.094,166.887,193.845,159.818,193.845z M159.818,169.004
						c-6.628,0-12.02,5.392-12.02,12.02c0,6.628,5.392,12.02,12.02,12.02c6.628,0,12.02-5.392,12.02-12.02
						C171.838,174.396,166.446,169.004,159.818,169.004z"/>
				</g>
				
					<line style="fill:#FFFFFF;stroke:#1F74C2;stroke-linecap:round;stroke-linejoin:round;stroke-miterlimit:10;" x1="68.365" y1="169.263" x2="141.102" y2="169.263"/>
				
					<line style="fill:#FFFFFF;stroke:#1F74C2;stroke-linecap:round;stroke-linejoin:round;stroke-miterlimit:10;" x1="68.365" y1="172.987" x2="127.875" y2="172.987"/>
				
					<line style="fill:#FFFFFF;stroke:#1F74C2;stroke-linecap:round;stroke-linejoin:round;stroke-miterlimit:10;" x1="68.365" y1="176.711" x2="135.652" y2="176.711"/>
				
					<line style="fill:#FFFFFF;stroke:#1F74C2;stroke-linecap:round;stroke-linejoin:round;stroke-miterlimit:10;" x1="68.365" y1="180.434" x2="102.009" y2="180.434"/>
				
					<line style="fill:#FFFFFF;stroke:#1F74C2;stroke-linecap:round;stroke-linejoin:round;stroke-miterlimit:10;" x1="68.365" y1="184.158" x2="129.996" y2="184.158"/>
			</g>
			<g>
				<path style="fill:#FFFFFF;" d="M191.409,227.726h-83.415c-1.912,0-3.477-1.564-3.477-3.477v-26.455
					c0-1.912,1.565-3.477,3.477-3.477h83.415c1.912,0,3.477,1.564,3.477,3.477v26.455
					C194.886,226.161,193.322,227.726,191.409,227.726z"/>
				<g>
					<path style="fill:#98C4E5;" d="M191.409,194.318h-83.415c-1.912,0-3.476,1.564-3.476,3.477v2.347h90.368v-2.347
						C194.886,195.882,193.322,194.318,191.409,194.318z"/>
					<path style="fill:#FFFFFF;" d="M110.147,197.229c0,0.789-0.639,1.428-1.428,1.428s-1.428-0.639-1.428-1.428
						c0-0.788,0.639-1.428,1.428-1.428S110.147,196.441,110.147,197.229z"/>
					<circle style="fill:#FFFFFF;" cx="112.945" cy="197.229" r="1.428"/>
					<circle style="fill:#FFFFFF;" cx="117.17" cy="197.229" r="1.428"/>
				</g>
				<path style="fill:none;stroke:#1F74C2;stroke-miterlimit:10;" d="M191.409,227.726h-83.415c-1.912,0-3.477-1.564-3.477-3.477
					v-26.455c0-1.912,1.565-3.477,3.477-3.477h83.415c1.912,0,3.477,1.564,3.477,3.477v26.455
					C194.886,226.161,193.322,227.726,191.409,227.726z"/>
				<g>
					<g>
						<path style="fill:#98C4E5;" d="M179.764,217.794l-0.107,2.061c-0.012,0.267-0.071,0.46-0.178,0.582
							c-0.107,0.121-0.279,0.182-0.515,0.182c-0.196,0-0.338-0.056-0.426-0.169c-0.089-0.113-0.133-0.293-0.133-0.542v-0.16
							l0.107-2.008c-0.243-0.041-0.477-0.111-0.702-0.209c-0.225-0.097-0.453-0.226-0.684-0.386
							c-0.083,0.137-0.175,0.237-0.275,0.302c-0.101,0.065-0.219,0.098-0.356,0.098c-0.237,0-0.423-0.078-0.56-0.235
							c-0.136-0.157-0.204-0.372-0.204-0.644v-1.235c0-0.213,0.066-0.388,0.2-0.524c0.133-0.136,0.31-0.204,0.529-0.204
							c0.344,0,0.592,0.231,0.746,0.693c0.041,0.142,0.077,0.24,0.107,0.293c0.124,0.219,0.416,0.419,0.875,0.6
							c0.459,0.181,0.931,0.271,1.417,0.271c0.557,0,1.005-0.13,1.346-0.391c0.34-0.261,0.511-0.598,0.511-1.013
							c0-0.367-0.121-0.667-0.364-0.902c-0.243-0.234-0.782-0.496-1.617-0.786l-1.555-0.524c-0.598-0.207-1.075-0.546-1.43-1.017
							c-0.355-0.471-0.533-1-0.533-1.586c0-0.764,0.265-1.38,0.795-1.847c0.53-0.468,1.266-0.738,2.208-0.809l0.035-0.675
							c0.018-0.243,0.083-0.425,0.195-0.546c0.112-0.121,0.266-0.182,0.462-0.182c0.201,0,0.355,0.055,0.462,0.165
							c0.107,0.11,0.16,0.268,0.16,0.475v0.107l-0.053,0.71c0.219,0.06,0.434,0.126,0.644,0.2s0.413,0.158,0.609,0.253
							c0.089-0.107,0.178-0.186,0.266-0.235c0.089-0.051,0.187-0.076,0.293-0.076c0.201,0,0.346,0.055,0.435,0.164
							c0.089,0.11,0.133,0.298,0.133,0.564v1.093c0,0.219-0.053,0.387-0.16,0.502c-0.107,0.115-0.261,0.173-0.462,0.173
							c-0.296,0-0.527-0.184-0.693-0.551c-0.035-0.094-0.065-0.166-0.089-0.213c-0.119-0.237-0.338-0.423-0.658-0.559
							s-0.696-0.205-1.128-0.205c-0.598,0-1.078,0.128-1.439,0.382c-0.361,0.255-0.542,0.593-0.542,1.013
							c0,0.338,0.112,0.629,0.337,0.875c0.225,0.246,0.557,0.439,0.995,0.582l1.706,0.569c0.865,0.279,1.5,0.644,1.906,1.097
							c0.406,0.453,0.609,1.02,0.609,1.701c0,0.776-0.289,1.409-0.866,1.901C181.545,217.459,180.759,217.735,179.764,217.794z"/>
					</g>
					<path style="fill:#98C4E5;" d="M179.359,223.553c-5.571,0-10.103-4.532-10.103-10.103c0-5.571,4.532-10.103,10.103-10.103
						c5.571,0,10.103,4.532,10.103,10.103C189.463,219.021,184.931,223.553,179.359,223.553z M179.359,203.977
						c-5.223,0-9.472,4.249-9.472,9.472c0,5.223,4.249,9.472,9.472,9.472c5.223,0,9.472-4.249,9.472-9.472
						C188.832,208.227,184.582,203.977,179.359,203.977z"/>
				</g>
				
					<line style="fill:#FFFFFF;stroke:#1F74C2;stroke-linecap:round;stroke-linejoin:round;stroke-miterlimit:10;" x1="107.292" y1="204.182" x2="143.362" y2="204.182"/>
				
					<line style="fill:#FFFFFF;stroke:#1F74C2;stroke-linecap:round;stroke-linejoin:round;stroke-miterlimit:10;" x1="107.292" y1="207.116" x2="135.652" y2="207.116"/>
				
					<line style="fill:#FFFFFF;stroke:#1F74C2;stroke-linecap:round;stroke-linejoin:round;stroke-miterlimit:10;" x1="107.292" y1="210.051" x2="160.316" y2="210.051"/>
				
					<line style="fill:#FFFFFF;stroke:#1F74C2;stroke-linecap:round;stroke-linejoin:round;stroke-miterlimit:10;" x1="107.292" y1="212.985" x2="125.915" y2="212.985"/>
			</g>
			<g>
				<g>
					<g>
						<ellipse style="fill:#D18F37;" cx="140.882" cy="385.554" rx="28.944" ry="4.066"/>
						<rect x="111.938" y="382.952" style="fill:#D18F37;" width="57.888" height="2.602"/>
						<ellipse style="fill:#FBB040;" cx="140.882" cy="383.077" rx="28.944" ry="4.066"/>
						<g>
							<path style="fill:#FCCD8D;" d="M133.412,383.199l-3.278-0.065c-0.424-0.007-0.732-0.043-0.925-0.109s-0.29-0.17-0.29-0.315
								c0-0.119,0.089-0.206,0.268-0.26c0.179-0.054,0.466-0.081,0.862-0.081h0.254l3.193,0.065
								c0.066-0.148,0.177-0.291,0.332-0.429c0.156-0.138,0.36-0.277,0.615-0.418c-0.217-0.051-0.377-0.107-0.48-0.168
								c-0.104-0.062-0.156-0.134-0.156-0.217c0-0.145,0.125-0.259,0.374-0.342c0.25-0.083,0.591-0.125,1.024-0.125h1.964
								c0.339,0,0.617,0.041,0.834,0.122c0.217,0.081,0.325,0.189,0.325,0.323c0,0.21-0.367,0.362-1.102,0.456
								c-0.226,0.025-0.381,0.047-0.466,0.065c-0.349,0.076-0.666,0.254-0.954,0.534c-0.287,0.28-0.431,0.569-0.431,0.866
								c0,0.34,0.207,0.614,0.622,0.822c0.414,0.208,0.951,0.312,1.611,0.312c0.584,0,1.062-0.074,1.434-0.223
								c0.372-0.148,0.789-0.478,1.25-0.988l0.834-0.95c0.33-0.365,0.869-0.657,1.618-0.874c0.749-0.217,1.589-0.326,2.522-0.326
								c1.215,0,2.195,0.162,2.939,0.486s1.173,0.773,1.286,1.349l1.074,0.022c0.386,0.011,0.676,0.051,0.869,0.119
								c0.193,0.069,0.29,0.163,0.29,0.282c0,0.123-0.087,0.217-0.261,0.282c-0.174,0.065-0.426,0.098-0.756,0.098h-0.17
								l-1.13-0.033c-0.094,0.134-0.2,0.265-0.318,0.393c-0.118,0.128-0.252,0.252-0.403,0.372c0.17,0.054,0.294,0.109,0.374,0.163
								c0.08,0.054,0.12,0.114,0.12,0.179c0,0.123-0.087,0.212-0.261,0.266c-0.174,0.054-0.473,0.081-0.897,0.081h-1.738
								c-0.349,0-0.615-0.033-0.798-0.098c-0.184-0.065-0.275-0.159-0.275-0.282c0-0.181,0.292-0.322,0.876-0.423
								c0.151-0.022,0.264-0.04,0.339-0.054c0.377-0.072,0.674-0.206,0.89-0.402c0.217-0.195,0.325-0.425,0.325-0.689
								c0-0.365-0.202-0.658-0.607-0.879s-0.942-0.331-1.611-0.331c-0.537,0-1.001,0.069-1.392,0.206
								c-0.391,0.137-0.699,0.34-0.925,0.608l-0.904,1.042c-0.443,0.528-1.024,0.916-1.745,1.164
								c-0.721,0.248-1.623,0.372-2.706,0.372c-1.234,0-2.242-0.176-3.024-0.529C133.944,384.287,133.506,383.807,133.412,383.199z"
								/>
						</g>
						<g>
							<path style="fill:#D18F37;" d="M133.412,383.324l-3.278-0.065c-0.424-0.007-0.732-0.043-0.925-0.108s-0.29-0.17-0.29-0.315
								c0-0.119,0.089-0.206,0.268-0.26c0.179-0.054,0.466-0.081,0.862-0.081h0.254l3.193,0.065
								c0.066-0.148,0.177-0.291,0.332-0.429c0.156-0.138,0.36-0.277,0.615-0.418c-0.217-0.051-0.377-0.107-0.48-0.168
								c-0.104-0.062-0.156-0.134-0.156-0.217c0-0.145,0.125-0.259,0.374-0.342c0.25-0.083,0.591-0.125,1.024-0.125h1.964
								c0.339,0,0.617,0.041,0.834,0.122c0.217,0.081,0.325,0.189,0.325,0.323c0,0.21-0.367,0.362-1.102,0.456
								c-0.226,0.025-0.381,0.047-0.466,0.065c-0.349,0.076-0.666,0.254-0.954,0.534c-0.287,0.28-0.431,0.569-0.431,0.866
								c0,0.34,0.207,0.614,0.622,0.822c0.414,0.208,0.951,0.312,1.611,0.312c0.584,0,1.062-0.074,1.434-0.223
								c0.372-0.148,0.789-0.478,1.25-0.988l0.834-0.95c0.33-0.365,0.869-0.657,1.618-0.874c0.749-0.217,1.589-0.326,2.522-0.326
								c1.215,0,2.195,0.162,2.939,0.486s1.173,0.773,1.286,1.348l1.074,0.022c0.386,0.011,0.676,0.051,0.869,0.119
								c0.193,0.069,0.29,0.163,0.29,0.282c0,0.123-0.087,0.217-0.261,0.282c-0.174,0.065-0.426,0.098-0.756,0.098h-0.17
								l-1.13-0.033c-0.094,0.134-0.2,0.265-0.318,0.393c-0.118,0.128-0.252,0.252-0.403,0.372c0.17,0.054,0.294,0.108,0.374,0.163
								c0.08,0.054,0.12,0.114,0.12,0.179c0,0.123-0.087,0.212-0.261,0.266c-0.174,0.054-0.473,0.081-0.897,0.081h-1.738
								c-0.349,0-0.615-0.033-0.798-0.098c-0.184-0.065-0.275-0.159-0.275-0.282c0-0.181,0.292-0.322,0.876-0.423
								c0.151-0.022,0.264-0.04,0.339-0.054c0.377-0.072,0.674-0.206,0.89-0.402c0.217-0.195,0.325-0.425,0.325-0.689
								c0-0.365-0.202-0.658-0.607-0.879s-0.942-0.331-1.611-0.331c-0.537,0-1.001,0.069-1.392,0.206
								c-0.391,0.137-0.699,0.34-0.925,0.608l-0.904,1.042c-0.443,0.528-1.024,0.916-1.745,1.164
								c-0.721,0.248-1.623,0.372-2.706,0.372c-1.234,0-2.242-0.176-3.024-0.529C133.944,384.412,133.506,383.932,133.412,383.324z"
								/>
						</g>
					</g>
					<g>
						<ellipse style="fill:#D18F37;" cx="136.632" cy="381.974" rx="28.944" ry="4.066"/>
						<rect x="107.688" y="379.372" style="fill:#D18F37;" width="57.888" height="2.602"/>
						<ellipse style="fill:#FBB040;" cx="136.632" cy="379.497" rx="28.944" ry="4.066"/>
						<g>
							<path style="fill:#FCCD8D;" d="M129.162,379.619l-3.278-0.065c-0.424-0.007-0.732-0.043-0.925-0.108s-0.29-0.17-0.29-0.315
								c0-0.119,0.089-0.206,0.268-0.26c0.179-0.054,0.466-0.081,0.862-0.081h0.254l3.193,0.065
								c0.066-0.148,0.177-0.291,0.332-0.429c0.156-0.138,0.36-0.277,0.615-0.418c-0.217-0.051-0.377-0.107-0.48-0.168
								c-0.104-0.062-0.156-0.134-0.156-0.217c0-0.145,0.125-0.259,0.374-0.342c0.25-0.083,0.591-0.125,1.024-0.125h1.964
								c0.339,0,0.617,0.041,0.834,0.122c0.217,0.081,0.325,0.189,0.325,0.323c0,0.21-0.367,0.362-1.102,0.456
								c-0.226,0.025-0.381,0.047-0.466,0.065c-0.348,0.076-0.666,0.254-0.954,0.534c-0.287,0.28-0.431,0.569-0.431,0.866
								c0,0.34,0.207,0.614,0.622,0.822c0.415,0.208,0.951,0.312,1.611,0.312c0.584,0,1.062-0.074,1.434-0.223
								c0.372-0.148,0.789-0.478,1.25-0.988l0.834-0.95c0.33-0.365,0.869-0.657,1.618-0.874c0.749-0.217,1.589-0.326,2.522-0.326
								c1.215,0,2.195,0.162,2.939,0.486s1.173,0.773,1.286,1.349l1.074,0.022c0.386,0.011,0.676,0.051,0.869,0.119
								c0.193,0.069,0.29,0.163,0.29,0.282c0,0.123-0.087,0.217-0.261,0.282c-0.174,0.065-0.426,0.098-0.756,0.098h-0.17
								l-1.13-0.033c-0.094,0.134-0.2,0.265-0.318,0.393c-0.118,0.128-0.252,0.252-0.403,0.372c0.17,0.054,0.294,0.108,0.374,0.163
								c0.08,0.054,0.12,0.114,0.12,0.179c0,0.123-0.087,0.212-0.261,0.266c-0.174,0.054-0.473,0.081-0.897,0.081h-1.738
								c-0.349,0-0.615-0.033-0.798-0.098c-0.184-0.065-0.275-0.159-0.275-0.282c0-0.181,0.292-0.322,0.876-0.423
								c0.151-0.022,0.264-0.04,0.339-0.054c0.377-0.072,0.674-0.206,0.89-0.402c0.217-0.195,0.325-0.425,0.325-0.689
								c0-0.365-0.202-0.658-0.607-0.879s-0.942-0.331-1.611-0.331c-0.537,0-1.001,0.069-1.392,0.206
								c-0.391,0.137-0.699,0.34-0.925,0.608l-0.904,1.042c-0.443,0.528-1.024,0.916-1.745,1.164
								c-0.721,0.248-1.623,0.372-2.706,0.372c-1.234,0-2.242-0.176-3.024-0.529C129.694,380.707,129.256,380.227,129.162,379.619z"
								/>
						</g>
						<g>
							<path style="fill:#D18F37;" d="M129.162,379.744l-3.278-0.065c-0.424-0.007-0.732-0.043-0.925-0.108s-0.29-0.17-0.29-0.315
								c0-0.119,0.089-0.206,0.268-0.261c0.179-0.054,0.466-0.081,0.862-0.081h0.254l3.193,0.065
								c0.066-0.148,0.177-0.291,0.332-0.429c0.156-0.138,0.36-0.277,0.615-0.418c-0.217-0.051-0.377-0.107-0.48-0.168
								c-0.104-0.062-0.156-0.134-0.156-0.217c0-0.145,0.125-0.259,0.374-0.342c0.25-0.083,0.591-0.125,1.024-0.125h1.964
								c0.339,0,0.617,0.041,0.834,0.122c0.217,0.081,0.325,0.189,0.325,0.323c0,0.21-0.367,0.362-1.102,0.456
								c-0.226,0.025-0.381,0.047-0.466,0.065c-0.348,0.076-0.666,0.254-0.954,0.534c-0.287,0.28-0.431,0.569-0.431,0.866
								c0,0.34,0.207,0.614,0.622,0.822c0.415,0.208,0.951,0.312,1.611,0.312c0.584,0,1.062-0.074,1.434-0.222
								c0.372-0.148,0.789-0.478,1.25-0.988l0.834-0.95c0.33-0.365,0.869-0.657,1.618-0.874c0.749-0.217,1.589-0.326,2.522-0.326
								c1.215,0,2.195,0.162,2.939,0.486s1.173,0.773,1.286,1.349l1.074,0.022c0.386,0.011,0.676,0.051,0.869,0.119
								c0.193,0.069,0.29,0.163,0.29,0.282c0,0.123-0.087,0.217-0.261,0.282c-0.174,0.065-0.426,0.098-0.756,0.098h-0.17
								l-1.13-0.033c-0.094,0.134-0.2,0.265-0.318,0.393c-0.118,0.129-0.252,0.252-0.403,0.372c0.17,0.054,0.294,0.108,0.374,0.163
								c0.08,0.054,0.12,0.114,0.12,0.179c0,0.123-0.087,0.212-0.261,0.266c-0.174,0.054-0.473,0.081-0.897,0.081h-1.738
								c-0.349,0-0.615-0.033-0.798-0.098c-0.184-0.065-0.275-0.159-0.275-0.282c0-0.181,0.292-0.322,0.876-0.423
								c0.151-0.022,0.264-0.04,0.339-0.054c0.377-0.072,0.674-0.206,0.89-0.402c0.217-0.195,0.325-0.425,0.325-0.689
								c0-0.365-0.202-0.659-0.607-0.879c-0.405-0.221-0.942-0.331-1.611-0.331c-0.537,0-1.001,0.069-1.392,0.206
								c-0.391,0.137-0.699,0.34-0.925,0.608l-0.904,1.042c-0.443,0.528-1.024,0.916-1.745,1.164
								c-0.721,0.248-1.623,0.372-2.706,0.372c-1.234,0-2.242-0.176-3.024-0.529C129.694,380.832,129.256,380.352,129.162,379.744z"
								/>
						</g>
					</g>
					<g>
						<path style="fill:#D18F37;" d="M168.474,379.147c0,2.245-12.959,4.066-28.944,4.066c-15.985,0-28.944-1.82-28.944-4.066
							c0-2.245,12.959-4.066,28.944-4.066C155.515,375.081,168.474,376.901,168.474,379.147z"/>
						<rect x="110.586" y="376.545" style="fill:#D18F37;" width="57.888" height="2.602"/>
						<path style="fill:#FBB040;" d="M168.474,376.67c0,2.245-12.959,4.066-28.944,4.066c-15.985,0-28.944-1.82-28.944-4.066
							c0-2.245,12.959-4.066,28.944-4.066C155.515,372.604,168.474,374.424,168.474,376.67z"/>
						<g>
							<path style="fill:#FCCD8D;" d="M132.06,376.792l-3.278-0.065c-0.424-0.007-0.732-0.043-0.925-0.109
								c-0.193-0.065-0.29-0.17-0.29-0.315c0-0.119,0.09-0.206,0.269-0.261c0.179-0.054,0.466-0.081,0.862-0.081h0.254l3.193,0.065
								c0.066-0.148,0.177-0.291,0.332-0.429c0.155-0.138,0.36-0.277,0.615-0.418c-0.217-0.051-0.377-0.107-0.48-0.168
								c-0.104-0.061-0.155-0.134-0.155-0.217c0-0.145,0.125-0.259,0.374-0.342c0.25-0.083,0.591-0.125,1.024-0.125h1.964
								c0.339,0,0.617,0.041,0.834,0.122c0.217,0.081,0.325,0.189,0.325,0.323c0,0.21-0.367,0.362-1.102,0.456
								c-0.226,0.025-0.382,0.047-0.466,0.065c-0.349,0.076-0.666,0.254-0.954,0.534c-0.287,0.28-0.431,0.569-0.431,0.866
								c0,0.34,0.207,0.614,0.622,0.822c0.414,0.208,0.951,0.312,1.611,0.312c0.584,0,1.062-0.074,1.434-0.222
								c0.372-0.148,0.789-0.478,1.25-0.988l0.834-0.95c0.33-0.365,0.869-0.657,1.618-0.874c0.749-0.217,1.589-0.326,2.522-0.326
								c1.215,0,2.195,0.162,2.939,0.486c0.744,0.324,1.173,0.773,1.286,1.349l1.074,0.022c0.386,0.011,0.676,0.051,0.869,0.119
								c0.193,0.069,0.29,0.163,0.29,0.282c0,0.123-0.087,0.217-0.261,0.282c-0.174,0.065-0.426,0.098-0.756,0.098h-0.17
								l-1.13-0.033c-0.094,0.134-0.2,0.265-0.318,0.393c-0.118,0.128-0.252,0.252-0.403,0.372c0.17,0.054,0.294,0.109,0.374,0.163
								c0.08,0.054,0.12,0.114,0.12,0.179c0,0.123-0.087,0.212-0.261,0.266c-0.174,0.054-0.473,0.081-0.897,0.081h-1.738
								c-0.348,0-0.615-0.033-0.798-0.098c-0.184-0.065-0.275-0.159-0.275-0.282c0-0.181,0.292-0.322,0.876-0.423
								c0.151-0.022,0.264-0.04,0.339-0.054c0.377-0.072,0.673-0.206,0.89-0.402c0.217-0.195,0.325-0.425,0.325-0.689
								c0-0.365-0.202-0.658-0.608-0.879c-0.405-0.221-0.942-0.331-1.611-0.331c-0.537,0-1.001,0.069-1.392,0.206
								c-0.391,0.137-0.699,0.34-0.926,0.608l-0.904,1.042c-0.443,0.528-1.024,0.916-1.745,1.164
								c-0.721,0.248-1.622,0.372-2.706,0.372c-1.234,0-2.242-0.176-3.024-0.529C132.592,377.88,132.154,377.4,132.06,376.792z"/>
						</g>
						<g>
							<path style="fill:#D18F37;" d="M132.06,376.917l-3.278-0.065c-0.424-0.007-0.732-0.043-0.925-0.108
								c-0.193-0.065-0.29-0.17-0.29-0.315c0-0.119,0.09-0.206,0.269-0.261c0.179-0.054,0.466-0.081,0.862-0.081h0.254l3.193,0.065
								c0.066-0.148,0.177-0.291,0.332-0.429c0.155-0.138,0.36-0.277,0.615-0.418c-0.217-0.051-0.377-0.107-0.48-0.168
								c-0.104-0.061-0.155-0.134-0.155-0.217c0-0.145,0.125-0.259,0.374-0.342c0.25-0.083,0.591-0.125,1.024-0.125h1.964
								c0.339,0,0.617,0.041,0.834,0.122c0.217,0.081,0.325,0.189,0.325,0.323c0,0.21-0.367,0.362-1.102,0.456
								c-0.226,0.025-0.382,0.047-0.466,0.065c-0.349,0.076-0.666,0.254-0.954,0.534c-0.287,0.28-0.431,0.569-0.431,0.866
								c0,0.34,0.207,0.614,0.622,0.822c0.414,0.208,0.951,0.312,1.611,0.312c0.584,0,1.062-0.074,1.434-0.222
								c0.372-0.148,0.789-0.478,1.25-0.988l0.834-0.95c0.33-0.365,0.869-0.657,1.618-0.874c0.749-0.217,1.589-0.326,2.522-0.326
								c1.215,0,2.195,0.162,2.939,0.486c0.744,0.324,1.173,0.773,1.286,1.349l1.074,0.022c0.386,0.011,0.676,0.051,0.869,0.119
								c0.193,0.069,0.29,0.163,0.29,0.282c0,0.123-0.087,0.217-0.261,0.282c-0.174,0.065-0.426,0.098-0.756,0.098h-0.17
								l-1.13-0.033c-0.094,0.134-0.2,0.265-0.318,0.393c-0.118,0.128-0.252,0.252-0.403,0.372c0.17,0.054,0.294,0.109,0.374,0.163
								c0.08,0.054,0.12,0.114,0.12,0.179c0,0.123-0.087,0.212-0.261,0.266c-0.174,0.054-0.473,0.081-0.897,0.081h-1.738
								c-0.348,0-0.615-0.033-0.798-0.098c-0.184-0.065-0.275-0.159-0.275-0.282c0-0.181,0.292-0.322,0.876-0.423
								c0.151-0.022,0.264-0.04,0.339-0.054c0.377-0.072,0.673-0.206,0.89-0.402c0.217-0.195,0.325-0.425,0.325-0.689
								c0-0.365-0.202-0.658-0.608-0.879c-0.405-0.221-0.942-0.331-1.611-0.331c-0.537,0-1.001,0.069-1.392,0.206
								c-0.391,0.137-0.699,0.34-0.926,0.608l-0.904,1.042c-0.443,0.528-1.024,0.916-1.745,1.164
								c-0.721,0.248-1.622,0.372-2.706,0.372c-1.234,0-2.242-0.176-3.024-0.529C132.592,378.005,132.154,377.525,132.06,376.917z"
								/>
						</g>
					</g>
					<g>
						<ellipse style="fill:#D18F37;" cx="135.415" cy="375.081" rx="28.944" ry="4.066"/>
						<rect x="106.471" y="372.479" style="fill:#D18F37;" width="57.888" height="2.602"/>
						<ellipse style="fill:#FBB040;" cx="135.415" cy="372.604" rx="28.944" ry="4.066"/>
						<g>
							<path style="fill:#FCCD8D;" d="M127.945,372.726l-3.278-0.065c-0.424-0.007-0.732-0.043-0.925-0.109
								c-0.193-0.065-0.29-0.17-0.29-0.315c0-0.119,0.09-0.206,0.268-0.26c0.179-0.054,0.466-0.081,0.862-0.081h0.254l3.193,0.065
								c0.066-0.148,0.177-0.291,0.332-0.429c0.155-0.138,0.36-0.277,0.615-0.418c-0.217-0.051-0.377-0.107-0.48-0.168
								c-0.104-0.061-0.155-0.134-0.155-0.217c0-0.145,0.125-0.259,0.374-0.342c0.25-0.083,0.591-0.125,1.024-0.125h1.964
								c0.339,0,0.617,0.041,0.834,0.122c0.217,0.081,0.325,0.189,0.325,0.323c0,0.21-0.367,0.362-1.102,0.456
								c-0.226,0.025-0.382,0.047-0.466,0.065c-0.348,0.076-0.666,0.254-0.954,0.535c-0.287,0.28-0.431,0.569-0.431,0.866
								c0,0.34,0.207,0.614,0.622,0.822c0.414,0.208,0.951,0.312,1.611,0.312c0.584,0,1.062-0.074,1.434-0.223
								c0.372-0.148,0.789-0.478,1.25-0.988l0.834-0.95c0.33-0.365,0.869-0.657,1.618-0.874c0.749-0.217,1.589-0.326,2.522-0.326
								c1.215,0,2.195,0.162,2.939,0.486c0.744,0.324,1.173,0.773,1.286,1.349l1.074,0.022c0.386,0.011,0.676,0.051,0.869,0.119
								c0.193,0.069,0.29,0.163,0.29,0.282c0,0.123-0.087,0.217-0.261,0.282c-0.174,0.065-0.426,0.098-0.756,0.098h-0.169
								l-1.13-0.033c-0.094,0.134-0.2,0.265-0.318,0.393c-0.118,0.128-0.252,0.252-0.403,0.372c0.169,0.054,0.294,0.109,0.374,0.163
								c0.08,0.054,0.12,0.114,0.12,0.179c0,0.123-0.087,0.212-0.261,0.266c-0.174,0.054-0.473,0.081-0.897,0.081h-1.738
								c-0.348,0-0.615-0.033-0.798-0.098c-0.184-0.065-0.275-0.159-0.275-0.282c0-0.181,0.292-0.322,0.876-0.423
								c0.151-0.022,0.264-0.04,0.339-0.054c0.377-0.072,0.673-0.206,0.89-0.402c0.217-0.195,0.325-0.425,0.325-0.689
								c0-0.365-0.203-0.658-0.608-0.879c-0.405-0.221-0.942-0.331-1.611-0.331c-0.537,0-1.001,0.069-1.392,0.206
								c-0.391,0.137-0.699,0.34-0.925,0.608l-0.904,1.042c-0.443,0.528-1.024,0.916-1.745,1.164
								c-0.721,0.248-1.622,0.372-2.706,0.372c-1.234,0-2.242-0.176-3.023-0.529C128.477,373.814,128.039,373.334,127.945,372.726z"
								/>
						</g>
						<g>
							<path style="fill:#D18F37;" d="M127.945,372.851l-3.278-0.065c-0.424-0.007-0.732-0.043-0.925-0.109
								c-0.193-0.065-0.29-0.17-0.29-0.315c0-0.119,0.09-0.206,0.268-0.26c0.179-0.054,0.466-0.081,0.862-0.081h0.254l3.193,0.065
								c0.066-0.148,0.177-0.291,0.332-0.429c0.155-0.138,0.36-0.277,0.615-0.418c-0.217-0.051-0.377-0.107-0.48-0.168
								c-0.104-0.061-0.155-0.134-0.155-0.217c0-0.145,0.125-0.259,0.374-0.342c0.25-0.083,0.591-0.125,1.024-0.125h1.964
								c0.339,0,0.617,0.041,0.834,0.122c0.217,0.081,0.325,0.189,0.325,0.323c0,0.21-0.367,0.362-1.102,0.456
								c-0.226,0.025-0.382,0.047-0.466,0.065c-0.348,0.076-0.666,0.254-0.954,0.535c-0.287,0.28-0.431,0.569-0.431,0.866
								c0,0.34,0.207,0.614,0.622,0.822c0.414,0.208,0.951,0.312,1.611,0.312c0.584,0,1.062-0.074,1.434-0.222
								c0.372-0.148,0.789-0.478,1.25-0.988l0.834-0.95c0.33-0.365,0.869-0.657,1.618-0.874c0.749-0.217,1.589-0.326,2.522-0.326
								c1.215,0,2.195,0.162,2.939,0.486c0.744,0.324,1.173,0.773,1.286,1.349l1.074,0.022c0.386,0.011,0.676,0.051,0.869,0.119
								c0.193,0.069,0.29,0.163,0.29,0.282c0,0.123-0.087,0.217-0.261,0.282c-0.174,0.065-0.426,0.098-0.756,0.098h-0.169
								l-1.13-0.033c-0.094,0.134-0.2,0.265-0.318,0.393c-0.118,0.128-0.252,0.252-0.403,0.372c0.169,0.054,0.294,0.109,0.374,0.163
								c0.08,0.054,0.12,0.114,0.12,0.179c0,0.123-0.087,0.212-0.261,0.266c-0.174,0.054-0.473,0.081-0.897,0.081h-1.738
								c-0.348,0-0.615-0.033-0.798-0.098c-0.184-0.065-0.275-0.159-0.275-0.282c0-0.181,0.292-0.322,0.876-0.423
								c0.151-0.022,0.264-0.04,0.339-0.054c0.377-0.072,0.673-0.206,0.89-0.402c0.217-0.195,0.325-0.425,0.325-0.689
								c0-0.365-0.203-0.658-0.608-0.879c-0.405-0.221-0.942-0.331-1.611-0.331c-0.537,0-1.001,0.069-1.392,0.206
								c-0.391,0.137-0.699,0.34-0.925,0.608l-0.904,1.042c-0.443,0.528-1.024,0.916-1.745,1.164s-1.622,0.372-2.706,0.372
								c-1.234,0-2.242-0.176-3.023-0.529C128.477,373.939,128.039,373.459,127.945,372.851z"/>
						</g>
					</g>
					<g>
						<ellipse style="fill:#D18F37;" cx="140.882" cy="372.254" rx="28.944" ry="4.066"/>
						<rect x="111.938" y="369.652" style="fill:#D18F37;" width="57.888" height="2.602"/>
						<ellipse style="fill:#FBB040;" cx="140.882" cy="369.777" rx="28.944" ry="4.066"/>
						<g>
							<path style="fill:#FCCD8D;" d="M133.412,369.898l-3.278-0.065c-0.424-0.007-0.732-0.043-0.925-0.108
								c-0.193-0.065-0.29-0.17-0.29-0.315c0-0.119,0.089-0.206,0.268-0.26c0.179-0.054,0.466-0.081,0.862-0.081h0.254l3.193,0.065
								c0.066-0.148,0.177-0.291,0.332-0.429c0.156-0.137,0.36-0.277,0.615-0.418c-0.217-0.051-0.377-0.107-0.48-0.168
								c-0.104-0.061-0.156-0.134-0.156-0.217c0-0.145,0.125-0.259,0.374-0.342s0.591-0.125,1.024-0.125h1.964
								c0.339,0,0.617,0.041,0.834,0.122c0.217,0.081,0.325,0.189,0.325,0.323c0,0.21-0.367,0.362-1.102,0.456
								c-0.226,0.025-0.381,0.047-0.466,0.065c-0.349,0.076-0.666,0.254-0.954,0.535c-0.287,0.28-0.431,0.569-0.431,0.866
								c0,0.34,0.207,0.614,0.622,0.822c0.414,0.208,0.951,0.312,1.611,0.312c0.584,0,1.062-0.074,1.434-0.223
								c0.372-0.148,0.789-0.478,1.25-0.988l0.834-0.95c0.33-0.365,0.869-0.657,1.618-0.874c0.749-0.217,1.589-0.326,2.522-0.326
								c1.215,0,2.195,0.162,2.939,0.486c0.744,0.324,1.173,0.773,1.286,1.348l1.074,0.022c0.386,0.011,0.676,0.051,0.869,0.119
								c0.193,0.069,0.29,0.163,0.29,0.282c0,0.123-0.087,0.217-0.261,0.282c-0.174,0.065-0.426,0.098-0.756,0.098h-0.17
								l-1.13-0.033c-0.094,0.134-0.2,0.265-0.318,0.393c-0.118,0.129-0.252,0.252-0.403,0.372c0.17,0.054,0.294,0.109,0.374,0.163
								c0.08,0.054,0.12,0.114,0.12,0.179c0,0.123-0.087,0.212-0.261,0.266c-0.174,0.054-0.473,0.081-0.897,0.081h-1.738
								c-0.349,0-0.615-0.033-0.798-0.098c-0.184-0.065-0.275-0.159-0.275-0.282c0-0.181,0.292-0.322,0.876-0.423
								c0.151-0.022,0.264-0.04,0.339-0.054c0.377-0.072,0.674-0.206,0.89-0.401c0.217-0.195,0.325-0.425,0.325-0.689
								c0-0.365-0.202-0.658-0.607-0.879c-0.405-0.221-0.942-0.331-1.611-0.331c-0.537,0-1.001,0.069-1.392,0.206
								c-0.391,0.138-0.699,0.34-0.925,0.608l-0.904,1.042c-0.443,0.528-1.024,0.916-1.745,1.164
								c-0.721,0.248-1.623,0.372-2.706,0.372c-1.234,0-2.242-0.176-3.024-0.529S133.506,370.506,133.412,369.898z"/>
						</g>
						<g>
							<path style="fill:#D18F37;" d="M133.412,370.023l-3.278-0.065c-0.424-0.007-0.732-0.043-0.925-0.109
								c-0.193-0.065-0.29-0.17-0.29-0.315c0-0.119,0.089-0.206,0.268-0.26s0.466-0.081,0.862-0.081h0.254l3.193,0.065
								c0.066-0.148,0.177-0.291,0.332-0.429c0.156-0.137,0.36-0.277,0.615-0.418c-0.217-0.051-0.377-0.107-0.48-0.168
								c-0.104-0.061-0.156-0.134-0.156-0.217c0-0.145,0.125-0.259,0.374-0.342s0.591-0.125,1.024-0.125h1.964
								c0.339,0,0.617,0.041,0.834,0.122c0.217,0.081,0.325,0.189,0.325,0.323c0,0.21-0.367,0.362-1.102,0.456
								c-0.226,0.025-0.381,0.047-0.466,0.065c-0.349,0.076-0.666,0.254-0.954,0.535c-0.287,0.28-0.431,0.569-0.431,0.866
								c0,0.34,0.207,0.614,0.622,0.822c0.414,0.208,0.951,0.312,1.611,0.312c0.584,0,1.062-0.074,1.434-0.223
								c0.372-0.148,0.789-0.478,1.25-0.988l0.834-0.95c0.33-0.365,0.869-0.657,1.618-0.874c0.749-0.217,1.589-0.326,2.522-0.326
								c1.215,0,2.195,0.162,2.939,0.486c0.744,0.324,1.173,0.773,1.286,1.349l1.074,0.022c0.386,0.011,0.676,0.051,0.869,0.119
								c0.193,0.069,0.29,0.163,0.29,0.282c0,0.123-0.087,0.217-0.261,0.282c-0.174,0.065-0.426,0.098-0.756,0.098h-0.17
								l-1.13-0.033c-0.094,0.134-0.2,0.265-0.318,0.393c-0.118,0.128-0.252,0.252-0.403,0.372c0.17,0.054,0.294,0.109,0.374,0.163
								c0.08,0.054,0.12,0.114,0.12,0.179c0,0.123-0.087,0.212-0.261,0.266c-0.174,0.054-0.473,0.081-0.897,0.081h-1.738
								c-0.349,0-0.615-0.033-0.798-0.098c-0.184-0.065-0.275-0.159-0.275-0.282c0-0.181,0.292-0.322,0.876-0.423
								c0.151-0.022,0.264-0.04,0.339-0.054c0.377-0.072,0.674-0.206,0.89-0.402c0.217-0.195,0.325-0.425,0.325-0.689
								c0-0.365-0.202-0.658-0.607-0.879s-0.942-0.331-1.611-0.331c-0.537,0-1.001,0.069-1.392,0.206
								c-0.391,0.138-0.699,0.34-0.925,0.608l-0.904,1.042c-0.443,0.528-1.024,0.916-1.745,1.164
								c-0.721,0.248-1.623,0.372-2.706,0.372c-1.234,0-2.242-0.176-3.024-0.529C133.944,371.112,133.506,370.631,133.412,370.023z"
								/>
						</g>
					</g>
					<g>
						<path style="fill:#D18F37;" d="M167.913,368.673c0,2.246-12.959,4.066-28.944,4.066c-15.985,0-28.944-1.82-28.944-4.066
							c0-2.245,12.959-4.066,28.944-4.066C154.954,364.607,167.913,366.428,167.913,368.673z"/>
						<rect x="110.025" y="366.071" style="fill:#D18F37;" width="57.888" height="2.602"/>
						<path style="fill:#FBB040;" d="M167.913,366.196c0,2.246-12.959,4.066-28.944,4.066c-15.985,0-28.944-1.82-28.944-4.066
							c0-2.245,12.959-4.066,28.944-4.066C154.954,362.13,167.913,363.951,167.913,366.196z"/>
						<g>
							<path style="fill:#FCCD8D;" d="M131.498,366.318l-3.278-0.065c-0.424-0.007-0.732-0.043-0.925-0.109
								c-0.193-0.065-0.29-0.17-0.29-0.315c0-0.119,0.09-0.206,0.268-0.26c0.179-0.054,0.466-0.081,0.862-0.081h0.254l3.193,0.065
								c0.066-0.148,0.177-0.291,0.332-0.429c0.155-0.137,0.36-0.277,0.615-0.418c-0.217-0.051-0.377-0.107-0.48-0.168
								c-0.104-0.061-0.155-0.134-0.155-0.217c0-0.145,0.125-0.259,0.374-0.342s0.591-0.125,1.024-0.125h1.964
								c0.339,0,0.617,0.041,0.834,0.122c0.217,0.081,0.325,0.189,0.325,0.323c0,0.21-0.367,0.362-1.102,0.456
								c-0.226,0.025-0.382,0.047-0.466,0.065c-0.348,0.076-0.666,0.254-0.954,0.535c-0.287,0.28-0.431,0.569-0.431,0.866
								c0,0.34,0.207,0.614,0.622,0.822c0.415,0.208,0.951,0.312,1.611,0.312c0.584,0,1.062-0.074,1.434-0.223
								c0.372-0.148,0.789-0.478,1.25-0.988l0.834-0.95c0.33-0.365,0.869-0.657,1.618-0.874c0.749-0.217,1.59-0.326,2.522-0.326
								c1.215,0,2.195,0.162,2.939,0.486c0.744,0.324,1.173,0.773,1.286,1.349l1.074,0.022c0.386,0.011,0.676,0.051,0.869,0.119
								c0.193,0.069,0.29,0.163,0.29,0.282c0,0.123-0.087,0.217-0.261,0.282c-0.174,0.065-0.426,0.098-0.756,0.098h-0.17
								l-1.13-0.033c-0.094,0.134-0.2,0.265-0.318,0.393c-0.118,0.128-0.252,0.252-0.403,0.372c0.169,0.054,0.294,0.109,0.374,0.163
								c0.08,0.054,0.12,0.114,0.12,0.179c0,0.123-0.087,0.212-0.261,0.266c-0.174,0.054-0.473,0.081-0.897,0.081h-1.738
								c-0.348,0-0.615-0.033-0.798-0.098c-0.184-0.065-0.275-0.159-0.275-0.282c0-0.181,0.292-0.322,0.876-0.423
								c0.151-0.022,0.264-0.04,0.339-0.054c0.377-0.072,0.673-0.206,0.89-0.402c0.217-0.195,0.325-0.425,0.325-0.689
								c0-0.365-0.202-0.658-0.607-0.879s-0.942-0.331-1.611-0.331c-0.537,0-1.001,0.069-1.392,0.206
								c-0.391,0.138-0.699,0.34-0.925,0.608l-0.904,1.042c-0.443,0.528-1.024,0.916-1.745,1.164
								c-0.721,0.248-1.622,0.372-2.706,0.372c-1.234,0-2.242-0.176-3.024-0.529C132.031,367.406,131.592,366.926,131.498,366.318z"
								/>
						</g>
						<g>
							<path style="fill:#D18F37;" d="M131.498,366.443l-3.278-0.065c-0.424-0.007-0.732-0.043-0.925-0.109s-0.29-0.17-0.29-0.315
								c0-0.119,0.09-0.206,0.268-0.26c0.179-0.054,0.466-0.081,0.862-0.081h0.254l3.193,0.065c0.066-0.148,0.177-0.291,0.332-0.429
								c0.155-0.137,0.36-0.277,0.615-0.418c-0.217-0.051-0.377-0.107-0.48-0.168c-0.104-0.061-0.155-0.134-0.155-0.217
								c0-0.145,0.125-0.259,0.374-0.342c0.25-0.083,0.591-0.125,1.024-0.125h1.964c0.339,0,0.617,0.041,0.834,0.122
								c0.217,0.081,0.325,0.189,0.325,0.323c0,0.21-0.367,0.362-1.102,0.456c-0.226,0.025-0.382,0.047-0.466,0.065
								c-0.348,0.076-0.666,0.254-0.954,0.535c-0.287,0.28-0.431,0.569-0.431,0.866c0,0.34,0.207,0.614,0.622,0.822
								c0.415,0.208,0.951,0.312,1.611,0.312c0.584,0,1.062-0.074,1.434-0.223c0.372-0.148,0.789-0.478,1.25-0.988l0.834-0.95
								c0.33-0.365,0.869-0.657,1.618-0.874c0.749-0.217,1.59-0.326,2.522-0.326c1.215,0,2.195,0.162,2.939,0.486
								c0.744,0.324,1.173,0.773,1.286,1.349l1.074,0.022c0.386,0.011,0.676,0.051,0.869,0.119c0.193,0.069,0.29,0.163,0.29,0.282
								c0,0.123-0.087,0.217-0.261,0.282c-0.174,0.065-0.426,0.098-0.756,0.098h-0.17l-1.13-0.033
								c-0.094,0.134-0.2,0.265-0.318,0.393c-0.118,0.128-0.252,0.252-0.403,0.372c0.169,0.054,0.294,0.108,0.374,0.163
								c0.08,0.054,0.12,0.114,0.12,0.179c0,0.123-0.087,0.212-0.261,0.266c-0.174,0.054-0.473,0.081-0.897,0.081h-1.738
								c-0.348,0-0.615-0.033-0.798-0.098s-0.275-0.159-0.275-0.282c0-0.181,0.292-0.322,0.876-0.423
								c0.151-0.022,0.264-0.04,0.339-0.054c0.377-0.072,0.673-0.206,0.89-0.402c0.217-0.195,0.325-0.425,0.325-0.689
								c0-0.365-0.202-0.658-0.607-0.879s-0.942-0.331-1.611-0.331c-0.537,0-1.001,0.069-1.392,0.206
								c-0.391,0.138-0.699,0.34-0.925,0.608l-0.904,1.042c-0.443,0.528-1.024,0.916-1.745,1.164s-1.622,0.372-2.706,0.372
								c-1.234,0-2.242-0.176-3.024-0.529C132.031,367.531,131.592,367.051,131.498,366.443z"/>
						</g>
					</g>
					<g>
						<ellipse style="fill:#D18F37;" cx="135.415" cy="365.093" rx="28.944" ry="4.066"/>
						<rect x="106.471" y="362.491" style="fill:#D18F37;" width="57.888" height="2.602"/>
						<ellipse style="fill:#FBB040;" cx="135.415" cy="362.616" rx="28.944" ry="4.066"/>
						<g>
							<path style="fill:#FCCD8D;" d="M127.945,362.738l-3.278-0.065c-0.424-0.007-0.732-0.043-0.925-0.109s-0.29-0.17-0.29-0.315
								c0-0.119,0.09-0.206,0.268-0.26c0.179-0.054,0.466-0.081,0.862-0.081h0.254l3.193,0.065c0.066-0.148,0.177-0.291,0.332-0.429
								c0.155-0.137,0.36-0.277,0.615-0.418c-0.217-0.051-0.377-0.107-0.48-0.168c-0.104-0.061-0.155-0.134-0.155-0.217
								c0-0.145,0.125-0.259,0.374-0.342c0.25-0.083,0.591-0.125,1.024-0.125h1.964c0.339,0,0.617,0.041,0.834,0.122
								c0.217,0.081,0.325,0.189,0.325,0.323c0,0.21-0.367,0.362-1.102,0.456c-0.226,0.025-0.382,0.047-0.466,0.065
								c-0.348,0.076-0.666,0.254-0.954,0.535c-0.287,0.28-0.431,0.569-0.431,0.866c0,0.34,0.207,0.614,0.622,0.822
								c0.414,0.208,0.951,0.312,1.611,0.312c0.584,0,1.062-0.074,1.434-0.223c0.372-0.148,0.789-0.478,1.25-0.988l0.834-0.95
								c0.33-0.365,0.869-0.657,1.618-0.874c0.749-0.217,1.589-0.326,2.522-0.326c1.215,0,2.195,0.162,2.939,0.486
								c0.744,0.324,1.173,0.773,1.286,1.349l1.074,0.022c0.386,0.011,0.676,0.051,0.869,0.119c0.193,0.069,0.29,0.163,0.29,0.282
								c0,0.123-0.087,0.217-0.261,0.282c-0.174,0.065-0.426,0.098-0.756,0.098h-0.169l-1.13-0.033
								c-0.094,0.134-0.2,0.265-0.318,0.393c-0.118,0.128-0.252,0.252-0.403,0.372c0.169,0.054,0.294,0.108,0.374,0.163
								c0.08,0.054,0.12,0.114,0.12,0.179c0,0.123-0.087,0.212-0.261,0.266c-0.174,0.054-0.473,0.081-0.897,0.081h-1.738
								c-0.348,0-0.615-0.033-0.798-0.098s-0.275-0.159-0.275-0.282c0-0.181,0.292-0.322,0.876-0.423
								c0.151-0.022,0.264-0.04,0.339-0.054c0.377-0.072,0.673-0.206,0.89-0.402c0.217-0.195,0.325-0.425,0.325-0.689
								c0-0.365-0.203-0.658-0.608-0.879c-0.405-0.221-0.942-0.331-1.611-0.331c-0.537,0-1.001,0.069-1.392,0.206
								c-0.391,0.138-0.699,0.34-0.925,0.608l-0.904,1.042c-0.443,0.528-1.024,0.916-1.745,1.164s-1.622,0.372-2.706,0.372
								c-1.234,0-2.242-0.176-3.023-0.529C128.477,363.826,128.039,363.346,127.945,362.738z"/>
						</g>
						<g>
							<path style="fill:#D18F37;" d="M127.945,362.863l-3.278-0.065c-0.424-0.007-0.732-0.043-0.925-0.109s-0.29-0.17-0.29-0.315
								c0-0.119,0.09-0.206,0.268-0.26c0.179-0.054,0.466-0.081,0.862-0.081h0.254l3.193,0.065c0.066-0.148,0.177-0.291,0.332-0.429
								c0.155-0.137,0.36-0.277,0.615-0.418c-0.217-0.051-0.377-0.107-0.48-0.168c-0.104-0.061-0.155-0.134-0.155-0.217
								c0-0.145,0.125-0.259,0.374-0.342c0.25-0.083,0.591-0.125,1.024-0.125h1.964c0.339,0,0.617,0.041,0.834,0.122
								c0.217,0.081,0.325,0.189,0.325,0.323c0,0.21-0.367,0.362-1.102,0.456c-0.226,0.025-0.382,0.047-0.466,0.065
								c-0.348,0.076-0.666,0.254-0.954,0.535c-0.287,0.28-0.431,0.569-0.431,0.866c0,0.34,0.207,0.614,0.622,0.822
								c0.414,0.208,0.951,0.312,1.611,0.312c0.584,0,1.062-0.074,1.434-0.223c0.372-0.148,0.789-0.478,1.25-0.988l0.834-0.95
								c0.33-0.365,0.869-0.657,1.618-0.874c0.749-0.217,1.589-0.326,2.522-0.326c1.215,0,2.195,0.162,2.939,0.486
								c0.744,0.324,1.173,0.773,1.286,1.349l1.074,0.022c0.386,0.011,0.676,0.051,0.869,0.119c0.193,0.069,0.29,0.163,0.29,0.282
								c0,0.123-0.087,0.217-0.261,0.282c-0.174,0.065-0.426,0.098-0.756,0.098h-0.169l-1.13-0.033
								c-0.094,0.134-0.2,0.265-0.318,0.393c-0.118,0.128-0.252,0.252-0.403,0.372c0.169,0.054,0.294,0.108,0.374,0.163
								c0.08,0.054,0.12,0.114,0.12,0.179c0,0.123-0.087,0.212-0.261,0.266c-0.174,0.054-0.473,0.081-0.897,0.081h-1.738
								c-0.348,0-0.615-0.033-0.798-0.098s-0.275-0.159-0.275-0.282c0-0.181,0.292-0.322,0.876-0.423
								c0.151-0.022,0.264-0.04,0.339-0.054c0.377-0.072,0.673-0.206,0.89-0.402c0.217-0.195,0.325-0.425,0.325-0.689
								c0-0.365-0.203-0.658-0.608-0.879c-0.405-0.221-0.942-0.331-1.611-0.331c-0.537,0-1.001,0.069-1.392,0.206
								c-0.391,0.137-0.699,0.34-0.925,0.608l-0.904,1.042c-0.443,0.528-1.024,0.916-1.745,1.164s-1.622,0.372-2.706,0.372
								c-1.234,0-2.242-0.176-3.023-0.529C128.477,363.951,128.039,363.471,127.945,362.863z"/>
						</g>
					</g>
					<g>
						<path style="fill:#D18F37;" d="M169.826,362.266c0,2.246-12.959,4.066-28.944,4.066s-28.944-1.82-28.944-4.066
							c0-2.245,12.959-4.066,28.944-4.066S169.826,360.02,169.826,362.266z"/>
						<rect x="111.938" y="359.664" style="fill:#D18F37;" width="57.888" height="2.602"/>
						<path style="fill:#FBB040;" d="M169.826,359.789c0,2.245-12.959,4.066-28.944,4.066s-28.944-1.82-28.944-4.066
							c0-2.245,12.959-4.066,28.944-4.066S169.826,357.543,169.826,359.789z"/>
						<g>
							<path style="fill:#FCCD8D;" d="M133.412,359.911l-3.278-0.065c-0.424-0.007-0.732-0.043-0.925-0.109
								c-0.193-0.065-0.29-0.17-0.29-0.315c0-0.119,0.089-0.206,0.268-0.26s0.466-0.081,0.862-0.081h0.254l3.193,0.065
								c0.066-0.148,0.177-0.291,0.332-0.429c0.156-0.137,0.36-0.277,0.615-0.418c-0.217-0.051-0.377-0.107-0.48-0.168
								c-0.104-0.061-0.156-0.134-0.156-0.217c0-0.145,0.125-0.259,0.374-0.342c0.25-0.083,0.591-0.125,1.024-0.125h1.964
								c0.339,0,0.617,0.041,0.834,0.122c0.217,0.081,0.325,0.189,0.325,0.323c0,0.21-0.367,0.362-1.102,0.456
								c-0.226,0.025-0.381,0.047-0.466,0.065c-0.349,0.076-0.666,0.254-0.954,0.535c-0.287,0.28-0.431,0.569-0.431,0.865
								c0,0.34,0.207,0.614,0.622,0.822c0.414,0.208,0.951,0.312,1.611,0.312c0.584,0,1.062-0.074,1.434-0.223
								c0.372-0.148,0.789-0.478,1.25-0.988l0.834-0.95c0.33-0.365,0.869-0.657,1.618-0.874c0.749-0.217,1.589-0.326,2.522-0.326
								c1.215,0,2.195,0.162,2.939,0.486c0.744,0.324,1.173,0.773,1.286,1.349l1.074,0.022c0.386,0.011,0.676,0.051,0.869,0.119
								c0.193,0.069,0.29,0.163,0.29,0.282c0,0.123-0.087,0.217-0.261,0.282c-0.174,0.065-0.426,0.098-0.756,0.098h-0.17
								l-1.13-0.033c-0.094,0.134-0.2,0.265-0.318,0.393c-0.118,0.128-0.252,0.252-0.403,0.372c0.17,0.054,0.294,0.109,0.374,0.163
								c0.08,0.054,0.12,0.114,0.12,0.179c0,0.123-0.087,0.212-0.261,0.266c-0.174,0.054-0.473,0.081-0.897,0.081h-1.738
								c-0.349,0-0.615-0.033-0.798-0.098c-0.184-0.065-0.275-0.159-0.275-0.282c0-0.181,0.292-0.322,0.876-0.423
								c0.151-0.022,0.264-0.04,0.339-0.054c0.377-0.072,0.674-0.206,0.89-0.402c0.217-0.195,0.325-0.425,0.325-0.689
								c0-0.365-0.202-0.659-0.607-0.879c-0.405-0.221-0.942-0.331-1.611-0.331c-0.537,0-1.001,0.069-1.392,0.206
								s-0.699,0.34-0.925,0.608l-0.904,1.042c-0.443,0.528-1.024,0.916-1.745,1.164c-0.721,0.248-1.623,0.372-2.706,0.372
								c-1.234,0-2.242-0.176-3.024-0.529C133.944,360.999,133.506,360.518,133.412,359.911z"/>
						</g>
						<g>
							<path style="fill:#D18F37;" d="M133.412,360.036l-3.278-0.065c-0.424-0.007-0.732-0.043-0.925-0.108s-0.29-0.17-0.29-0.315
								c0-0.119,0.089-0.206,0.268-0.26s0.466-0.081,0.862-0.081h0.254l3.193,0.065c0.066-0.148,0.177-0.291,0.332-0.429
								c0.156-0.137,0.36-0.277,0.615-0.418c-0.217-0.051-0.377-0.107-0.48-0.168c-0.104-0.061-0.156-0.134-0.156-0.217
								c0-0.145,0.125-0.259,0.374-0.342c0.25-0.083,0.591-0.125,1.024-0.125h1.964c0.339,0,0.617,0.041,0.834,0.122
								c0.217,0.081,0.325,0.189,0.325,0.323c0,0.21-0.367,0.362-1.102,0.456c-0.226,0.025-0.381,0.047-0.466,0.065
								c-0.349,0.076-0.666,0.254-0.954,0.534c-0.287,0.28-0.431,0.569-0.431,0.866c0,0.34,0.207,0.614,0.622,0.822
								c0.414,0.208,0.951,0.312,1.611,0.312c0.584,0,1.062-0.074,1.434-0.223c0.372-0.148,0.789-0.478,1.25-0.988l0.834-0.95
								c0.33-0.365,0.869-0.657,1.618-0.874c0.749-0.217,1.589-0.326,2.522-0.326c1.215,0,2.195,0.162,2.939,0.486
								s1.173,0.773,1.286,1.349l1.074,0.022c0.386,0.011,0.676,0.051,0.869,0.119c0.193,0.069,0.29,0.163,0.29,0.282
								c0,0.123-0.087,0.217-0.261,0.282c-0.174,0.065-0.426,0.098-0.756,0.098h-0.17l-1.13-0.033
								c-0.094,0.134-0.2,0.265-0.318,0.393c-0.118,0.128-0.252,0.252-0.403,0.372c0.17,0.054,0.294,0.109,0.374,0.163
								c0.08,0.054,0.12,0.114,0.12,0.179c0,0.123-0.087,0.212-0.261,0.266c-0.174,0.054-0.473,0.081-0.897,0.081h-1.738
								c-0.349,0-0.615-0.033-0.798-0.098c-0.184-0.065-0.275-0.159-0.275-0.282c0-0.181,0.292-0.322,0.876-0.423
								c0.151-0.022,0.264-0.04,0.339-0.054c0.377-0.072,0.674-0.206,0.89-0.402c0.217-0.195,0.325-0.425,0.325-0.689
								c0-0.365-0.202-0.658-0.607-0.879c-0.405-0.221-0.942-0.331-1.611-0.331c-0.537,0-1.001,0.069-1.392,0.206
								s-0.699,0.34-0.925,0.608l-0.904,1.042c-0.443,0.528-1.024,0.916-1.745,1.164c-0.721,0.248-1.623,0.372-2.706,0.372
								c-1.234,0-2.242-0.176-3.024-0.529C133.944,361.124,133.506,360.643,133.412,360.036z"/>
						</g>
					</g>
				</g>
				<path style="fill:#A7A9AC;" d="M158.571,383.212c0,0,1.701,3.928-1.113,5.662h8.548l0.885-6.345L158.571,383.212z"/>
				<g>
					<g>
						<ellipse style="fill:#D18F37;" cx="192.826" cy="393.263" rx="28.944" ry="4.066"/>
						<rect x="163.882" y="390.661" style="fill:#D18F37;" width="57.888" height="2.602"/>
						<ellipse style="fill:#FBB040;" cx="192.826" cy="390.786" rx="28.944" ry="4.066"/>
						<g>
							<path style="fill:#FCCD8D;" d="M185.356,390.908l-3.278-0.065c-0.424-0.007-0.732-0.043-0.925-0.108s-0.29-0.17-0.29-0.315
								c0-0.119,0.089-0.206,0.268-0.26c0.179-0.054,0.466-0.081,0.862-0.081h0.254l3.193,0.065
								c0.066-0.148,0.177-0.291,0.332-0.429c0.156-0.138,0.36-0.277,0.615-0.418c-0.217-0.051-0.377-0.107-0.48-0.168
								c-0.104-0.061-0.155-0.134-0.155-0.217c0-0.145,0.125-0.259,0.374-0.342s0.591-0.125,1.024-0.125h1.964
								c0.339,0,0.617,0.041,0.834,0.122c0.217,0.081,0.325,0.189,0.325,0.323c0,0.21-0.367,0.362-1.102,0.456
								c-0.226,0.025-0.381,0.047-0.466,0.065c-0.349,0.076-0.666,0.254-0.954,0.534c-0.287,0.28-0.431,0.569-0.431,0.866
								c0,0.34,0.207,0.614,0.622,0.822c0.414,0.208,0.951,0.312,1.611,0.312c0.584,0,1.062-0.074,1.434-0.223
								c0.372-0.148,0.789-0.477,1.25-0.988l0.834-0.95c0.33-0.365,0.869-0.657,1.618-0.874c0.749-0.217,1.589-0.326,2.522-0.326
								c1.215,0,2.195,0.162,2.939,0.486c0.744,0.324,1.173,0.773,1.286,1.348l1.074,0.022c0.386,0.011,0.676,0.051,0.869,0.119
								c0.193,0.069,0.29,0.163,0.29,0.282c0,0.123-0.087,0.217-0.261,0.282c-0.174,0.065-0.426,0.098-0.756,0.098h-0.17
								l-1.13-0.033c-0.094,0.134-0.2,0.265-0.318,0.394c-0.118,0.128-0.252,0.252-0.403,0.372c0.17,0.054,0.294,0.109,0.374,0.163
								c0.08,0.054,0.12,0.114,0.12,0.179c0,0.123-0.087,0.212-0.261,0.266c-0.174,0.054-0.473,0.081-0.897,0.081h-1.738
								c-0.349,0-0.615-0.033-0.798-0.098c-0.184-0.065-0.275-0.159-0.275-0.282c0-0.181,0.292-0.322,0.876-0.423
								c0.151-0.022,0.264-0.04,0.339-0.054c0.377-0.072,0.674-0.206,0.89-0.402c0.217-0.195,0.325-0.425,0.325-0.689
								c0-0.365-0.202-0.658-0.607-0.879s-0.942-0.331-1.611-0.331c-0.537,0-1.001,0.069-1.392,0.206
								c-0.391,0.137-0.699,0.34-0.925,0.608l-0.904,1.042c-0.443,0.528-1.024,0.916-1.745,1.164
								c-0.721,0.248-1.623,0.372-2.706,0.372c-1.234,0-2.242-0.176-3.024-0.529C185.888,391.996,185.45,391.515,185.356,390.908z"
								/>
						</g>
						<g>
							<path style="fill:#D18F37;" d="M185.356,391.033l-3.278-0.065c-0.424-0.007-0.732-0.043-0.925-0.108
								c-0.193-0.065-0.29-0.17-0.29-0.315c0-0.119,0.089-0.206,0.268-0.26c0.179-0.054,0.466-0.081,0.862-0.081h0.254l3.193,0.065
								c0.066-0.148,0.177-0.291,0.332-0.429c0.156-0.137,0.36-0.277,0.615-0.418c-0.217-0.051-0.377-0.107-0.48-0.168
								c-0.104-0.061-0.155-0.134-0.155-0.217c0-0.145,0.125-0.259,0.374-0.342s0.591-0.125,1.024-0.125h1.964
								c0.339,0,0.617,0.041,0.834,0.122c0.217,0.081,0.325,0.189,0.325,0.323c0,0.21-0.367,0.362-1.102,0.456
								c-0.226,0.025-0.381,0.047-0.466,0.065c-0.349,0.076-0.666,0.254-0.954,0.535c-0.287,0.28-0.431,0.569-0.431,0.866
								c0,0.34,0.207,0.614,0.622,0.822c0.414,0.208,0.951,0.312,1.611,0.312c0.584,0,1.062-0.074,1.434-0.223
								c0.372-0.148,0.789-0.477,1.25-0.988l0.834-0.95c0.33-0.365,0.869-0.657,1.618-0.874c0.749-0.217,1.589-0.326,2.522-0.326
								c1.215,0,2.195,0.162,2.939,0.486c0.744,0.324,1.173,0.773,1.286,1.348l1.074,0.022c0.386,0.011,0.676,0.051,0.869,0.119
								c0.193,0.069,0.29,0.163,0.29,0.282c0,0.123-0.087,0.217-0.261,0.282c-0.174,0.065-0.426,0.098-0.756,0.098h-0.17
								l-1.13-0.033c-0.094,0.134-0.2,0.265-0.318,0.393c-0.118,0.129-0.252,0.252-0.403,0.372c0.17,0.054,0.294,0.109,0.374,0.163
								c0.08,0.054,0.12,0.114,0.12,0.179c0,0.123-0.087,0.212-0.261,0.266c-0.174,0.054-0.473,0.081-0.897,0.081h-1.738
								c-0.349,0-0.615-0.033-0.798-0.098c-0.184-0.065-0.275-0.159-0.275-0.282c0-0.181,0.292-0.322,0.876-0.423
								c0.151-0.022,0.264-0.04,0.339-0.054c0.377-0.072,0.674-0.206,0.89-0.402c0.217-0.195,0.325-0.425,0.325-0.689
								c0-0.365-0.202-0.659-0.607-0.879c-0.405-0.221-0.942-0.331-1.611-0.331c-0.537,0-1.001,0.069-1.392,0.206
								c-0.391,0.138-0.699,0.34-0.925,0.608l-0.904,1.042c-0.443,0.528-1.024,0.916-1.745,1.164
								c-0.721,0.248-1.623,0.372-2.706,0.372c-1.234,0-2.242-0.176-3.024-0.529C185.888,392.121,185.45,391.64,185.356,391.033z"/>
						</g>
					</g>
					<g>
						<path style="fill:#D18F37;" d="M217.52,389.682c0,2.245-12.959,4.066-28.944,4.066s-28.944-1.82-28.944-4.066
							c0-2.246,12.959-4.066,28.944-4.066S217.52,387.437,217.52,389.682z"/>
						<rect x="159.632" y="387.081" style="fill:#D18F37;" width="57.888" height="2.602"/>
						<ellipse style="fill:#FBB040;" cx="188.576" cy="387.206" rx="28.944" ry="4.066"/>
						<g>
							<path style="fill:#FCCD8D;" d="M181.106,387.327l-3.278-0.065c-0.424-0.007-0.732-0.043-0.925-0.108
								c-0.193-0.065-0.29-0.17-0.29-0.315c0-0.119,0.089-0.206,0.268-0.26c0.179-0.054,0.466-0.081,0.862-0.081h0.254l3.193,0.065
								c0.066-0.148,0.177-0.291,0.332-0.429c0.156-0.137,0.36-0.277,0.615-0.418c-0.217-0.051-0.377-0.107-0.48-0.168
								c-0.104-0.061-0.155-0.134-0.155-0.217c0-0.145,0.125-0.259,0.374-0.342s0.591-0.125,1.024-0.125h1.964
								c0.339,0,0.617,0.041,0.834,0.122c0.217,0.081,0.325,0.189,0.325,0.323c0,0.21-0.367,0.362-1.102,0.456
								c-0.226,0.025-0.381,0.047-0.466,0.065c-0.349,0.076-0.666,0.254-0.954,0.535c-0.287,0.28-0.431,0.569-0.431,0.866
								c0,0.34,0.207,0.614,0.622,0.822c0.414,0.208,0.951,0.312,1.611,0.312c0.584,0,1.062-0.074,1.434-0.223
								c0.372-0.148,0.789-0.477,1.25-0.988l0.834-0.95c0.33-0.365,0.869-0.657,1.618-0.874c0.749-0.217,1.589-0.326,2.522-0.326
								c1.215,0,2.195,0.162,2.939,0.486c0.744,0.324,1.173,0.773,1.286,1.348l1.074,0.022c0.386,0.011,0.676,0.051,0.869,0.119
								c0.193,0.069,0.29,0.163,0.29,0.282c0,0.123-0.087,0.217-0.261,0.282c-0.174,0.065-0.426,0.098-0.756,0.098h-0.17
								l-1.13-0.033c-0.094,0.134-0.2,0.265-0.318,0.393c-0.118,0.129-0.252,0.252-0.403,0.372c0.17,0.054,0.294,0.109,0.374,0.163
								c0.08,0.054,0.12,0.114,0.12,0.179c0,0.123-0.087,0.212-0.261,0.266c-0.174,0.054-0.473,0.081-0.897,0.081h-1.738
								c-0.349,0-0.615-0.033-0.798-0.098c-0.184-0.065-0.275-0.159-0.275-0.282c0-0.181,0.292-0.322,0.876-0.423
								c0.151-0.022,0.264-0.04,0.339-0.054c0.377-0.072,0.674-0.206,0.89-0.402c0.217-0.195,0.325-0.425,0.325-0.689
								c0-0.365-0.202-0.659-0.607-0.879c-0.405-0.221-0.942-0.331-1.611-0.331c-0.537,0-1.001,0.069-1.392,0.206
								c-0.391,0.138-0.699,0.34-0.925,0.608l-0.904,1.042c-0.443,0.528-1.024,0.916-1.745,1.164
								c-0.721,0.248-1.623,0.372-2.706,0.372c-1.234,0-2.242-0.176-3.024-0.529C181.638,388.415,181.2,387.935,181.106,387.327z"/>
						</g>
						<g>
							<path style="fill:#D18F37;" d="M181.106,387.452l-3.278-0.065c-0.424-0.007-0.732-0.043-0.925-0.109
								c-0.193-0.065-0.29-0.17-0.29-0.315c0-0.119,0.089-0.206,0.268-0.26c0.179-0.054,0.466-0.081,0.862-0.081h0.254l3.193,0.065
								c0.066-0.148,0.177-0.291,0.332-0.429c0.156-0.138,0.36-0.277,0.615-0.418c-0.217-0.051-0.377-0.107-0.48-0.168
								c-0.104-0.061-0.155-0.134-0.155-0.217c0-0.145,0.125-0.259,0.374-0.342s0.591-0.125,1.024-0.125h1.964
								c0.339,0,0.617,0.041,0.834,0.122c0.217,0.081,0.325,0.189,0.325,0.323c0,0.21-0.367,0.362-1.102,0.456
								c-0.226,0.025-0.381,0.047-0.466,0.065c-0.349,0.076-0.666,0.254-0.954,0.535c-0.287,0.28-0.431,0.569-0.431,0.866
								c0,0.34,0.207,0.614,0.622,0.822c0.414,0.208,0.951,0.312,1.611,0.312c0.584,0,1.062-0.074,1.434-0.223
								c0.372-0.148,0.789-0.478,1.25-0.988l0.834-0.95c0.33-0.365,0.869-0.657,1.618-0.874c0.749-0.217,1.589-0.326,2.522-0.326
								c1.215,0,2.195,0.162,2.939,0.486c0.744,0.324,1.173,0.773,1.286,1.349l1.074,0.022c0.386,0.011,0.676,0.051,0.869,0.119
								c0.193,0.069,0.29,0.163,0.29,0.282c0,0.123-0.087,0.217-0.261,0.282c-0.174,0.065-0.426,0.098-0.756,0.098h-0.17
								l-1.13-0.033c-0.094,0.134-0.2,0.265-0.318,0.393c-0.118,0.128-0.252,0.252-0.403,0.372c0.17,0.054,0.294,0.109,0.374,0.163
								c0.08,0.054,0.12,0.114,0.12,0.179c0,0.123-0.087,0.212-0.261,0.266c-0.174,0.054-0.473,0.081-0.897,0.081h-1.738
								c-0.349,0-0.615-0.033-0.798-0.098c-0.184-0.065-0.275-0.159-0.275-0.282c0-0.181,0.292-0.322,0.876-0.423
								c0.151-0.022,0.264-0.04,0.339-0.054c0.377-0.072,0.674-0.206,0.89-0.402c0.217-0.195,0.325-0.425,0.325-0.689
								c0-0.365-0.202-0.658-0.607-0.879s-0.942-0.331-1.611-0.331c-0.537,0-1.001,0.069-1.392,0.206
								c-0.391,0.138-0.699,0.34-0.925,0.608l-0.904,1.042c-0.443,0.528-1.024,0.916-1.745,1.164
								c-0.721,0.248-1.623,0.372-2.706,0.372c-1.234,0-2.242-0.176-3.024-0.529C181.638,388.54,181.2,388.06,181.106,387.452z"/>
						</g>
					</g>
					<g>
						<ellipse style="fill:#D18F37;" cx="191.474" cy="386.855" rx="28.944" ry="4.066"/>
						<rect x="162.53" y="384.253" style="fill:#D18F37;" width="57.888" height="2.602"/>
						<ellipse style="fill:#FBB040;" cx="191.474" cy="384.378" rx="28.944" ry="4.066"/>
						<g>
							<path style="fill:#FCCD8D;" d="M184.004,384.5l-3.278-0.065c-0.424-0.007-0.732-0.043-0.925-0.109
								c-0.193-0.065-0.29-0.17-0.29-0.315c0-0.119,0.089-0.206,0.268-0.26c0.179-0.054,0.466-0.081,0.862-0.081h0.254l3.193,0.065
								c0.066-0.148,0.177-0.291,0.332-0.429c0.155-0.138,0.36-0.277,0.615-0.418c-0.217-0.051-0.377-0.107-0.48-0.168
								c-0.104-0.061-0.155-0.134-0.155-0.217c0-0.145,0.125-0.259,0.374-0.342s0.591-0.125,1.024-0.125h1.964
								c0.339,0,0.617,0.041,0.834,0.122c0.217,0.081,0.325,0.189,0.325,0.323c0,0.21-0.367,0.362-1.102,0.456
								c-0.226,0.025-0.382,0.047-0.466,0.065c-0.349,0.076-0.667,0.254-0.954,0.535c-0.287,0.28-0.431,0.569-0.431,0.866
								c0,0.34,0.207,0.614,0.622,0.822c0.414,0.208,0.951,0.312,1.611,0.312c0.584,0,1.062-0.074,1.434-0.223
								c0.372-0.148,0.789-0.478,1.25-0.988l0.834-0.95c0.33-0.365,0.869-0.657,1.618-0.874c0.749-0.217,1.589-0.326,2.522-0.326
								c1.215,0,2.195,0.162,2.939,0.486c0.744,0.324,1.173,0.773,1.286,1.349l1.074,0.022c0.386,0.011,0.676,0.051,0.869,0.119
								c0.193,0.069,0.29,0.163,0.29,0.282c0,0.123-0.087,0.217-0.261,0.282c-0.174,0.065-0.426,0.098-0.756,0.098h-0.17
								l-1.13-0.033c-0.094,0.134-0.2,0.265-0.318,0.393c-0.118,0.128-0.252,0.252-0.403,0.372c0.17,0.054,0.294,0.109,0.374,0.163
								c0.08,0.054,0.12,0.114,0.12,0.179c0,0.123-0.087,0.212-0.261,0.266c-0.174,0.054-0.473,0.081-0.897,0.081h-1.738
								c-0.348,0-0.615-0.033-0.798-0.098c-0.184-0.065-0.275-0.159-0.275-0.282c0-0.181,0.292-0.322,0.876-0.423
								c0.151-0.022,0.264-0.04,0.339-0.054c0.377-0.072,0.674-0.206,0.89-0.402c0.217-0.195,0.325-0.425,0.325-0.689
								c0-0.365-0.202-0.658-0.608-0.879c-0.405-0.221-0.942-0.331-1.611-0.331c-0.537,0-1.001,0.069-1.392,0.206
								c-0.391,0.137-0.699,0.34-0.926,0.608l-0.904,1.042c-0.443,0.528-1.024,0.916-1.745,1.164
								c-0.721,0.248-1.622,0.372-2.706,0.372c-1.234,0-2.242-0.176-3.024-0.529C184.536,385.588,184.098,385.108,184.004,384.5z"/>
						</g>
						<g>
							<path style="fill:#D18F37;" d="M184.004,384.625l-3.278-0.065c-0.424-0.007-0.732-0.043-0.925-0.109
								c-0.193-0.065-0.29-0.17-0.29-0.315c0-0.119,0.089-0.206,0.268-0.26c0.179-0.054,0.466-0.081,0.862-0.081h0.254l3.193,0.065
								c0.066-0.148,0.177-0.291,0.332-0.429c0.155-0.137,0.36-0.277,0.615-0.418c-0.217-0.051-0.377-0.107-0.48-0.168
								c-0.104-0.061-0.155-0.134-0.155-0.217c0-0.145,0.125-0.259,0.374-0.342s0.591-0.125,1.024-0.125h1.964
								c0.339,0,0.617,0.041,0.834,0.122c0.217,0.081,0.325,0.189,0.325,0.323c0,0.21-0.367,0.362-1.102,0.456
								c-0.226,0.025-0.382,0.047-0.466,0.065c-0.349,0.076-0.667,0.254-0.954,0.535c-0.287,0.28-0.431,0.569-0.431,0.866
								c0,0.34,0.207,0.614,0.622,0.822c0.414,0.208,0.951,0.312,1.611,0.312c0.584,0,1.062-0.074,1.434-0.223
								c0.372-0.148,0.789-0.478,1.25-0.988l0.834-0.95c0.33-0.365,0.869-0.657,1.618-0.874c0.749-0.217,1.589-0.326,2.522-0.326
								c1.215,0,2.195,0.162,2.939,0.486c0.744,0.324,1.173,0.773,1.286,1.349l1.074,0.022c0.386,0.011,0.676,0.051,0.869,0.119
								s0.29,0.163,0.29,0.282c0,0.123-0.087,0.217-0.261,0.282c-0.174,0.065-0.426,0.098-0.756,0.098h-0.17l-1.13-0.033
								c-0.094,0.134-0.2,0.265-0.318,0.393c-0.118,0.129-0.252,0.252-0.403,0.372c0.17,0.054,0.294,0.109,0.374,0.163
								c0.08,0.054,0.12,0.114,0.12,0.179c0,0.123-0.087,0.212-0.261,0.266c-0.174,0.054-0.473,0.081-0.897,0.081h-1.738
								c-0.348,0-0.615-0.033-0.798-0.098c-0.184-0.065-0.275-0.159-0.275-0.282c0-0.181,0.292-0.322,0.876-0.423
								c0.151-0.022,0.264-0.04,0.339-0.054c0.377-0.072,0.674-0.206,0.89-0.401c0.217-0.195,0.325-0.425,0.325-0.689
								c0-0.365-0.202-0.658-0.608-0.879c-0.405-0.221-0.942-0.331-1.611-0.331c-0.537,0-1.001,0.069-1.392,0.206
								c-0.391,0.138-0.699,0.34-0.926,0.608l-0.904,1.042c-0.443,0.528-1.024,0.916-1.745,1.164
								c-0.721,0.248-1.622,0.372-2.706,0.372c-1.234,0-2.242-0.176-3.024-0.529C184.536,385.713,184.098,385.233,184.004,384.625z"
								/>
						</g>
					</g>
					<g>
						<ellipse style="fill:#D18F37;" cx="187.359" cy="382.789" rx="28.944" ry="4.066"/>
						<rect x="158.415" y="380.187" style="fill:#D18F37;" width="57.888" height="2.602"/>
						<ellipse style="fill:#FBB040;" cx="187.359" cy="380.312" rx="28.944" ry="4.066"/>
						<g>
							<path style="fill:#FCCD8D;" d="M179.889,380.434l-3.278-0.065c-0.424-0.007-0.732-0.043-0.926-0.109
								c-0.193-0.065-0.29-0.17-0.29-0.315c0-0.119,0.089-0.206,0.268-0.26c0.179-0.054,0.466-0.081,0.862-0.081h0.254l3.193,0.065
								c0.066-0.148,0.177-0.291,0.332-0.429c0.155-0.137,0.36-0.277,0.615-0.418c-0.217-0.051-0.377-0.107-0.48-0.168
								c-0.104-0.061-0.155-0.134-0.155-0.217c0-0.145,0.125-0.259,0.374-0.342c0.25-0.083,0.591-0.125,1.024-0.125h1.964
								c0.339,0,0.617,0.041,0.834,0.122c0.217,0.081,0.325,0.189,0.325,0.323c0,0.21-0.367,0.362-1.102,0.456
								c-0.226,0.025-0.382,0.047-0.466,0.065c-0.348,0.076-0.666,0.254-0.954,0.535c-0.287,0.28-0.431,0.569-0.431,0.865
								c0,0.34,0.207,0.614,0.622,0.822c0.414,0.208,0.951,0.312,1.611,0.312c0.584,0,1.062-0.074,1.434-0.223
								c0.372-0.148,0.789-0.478,1.25-0.988l0.834-0.95c0.33-0.365,0.869-0.657,1.618-0.874c0.749-0.217,1.59-0.326,2.522-0.326
								c1.215,0,2.195,0.162,2.939,0.486c0.744,0.324,1.173,0.773,1.286,1.349l1.074,0.022c0.386,0.011,0.676,0.051,0.869,0.119
								c0.193,0.069,0.29,0.163,0.29,0.282c0,0.123-0.087,0.217-0.261,0.282c-0.174,0.065-0.426,0.098-0.756,0.098h-0.169
								l-1.13-0.033c-0.094,0.134-0.2,0.265-0.318,0.393c-0.118,0.128-0.252,0.252-0.403,0.372c0.169,0.054,0.294,0.108,0.374,0.163
								c0.08,0.054,0.12,0.114,0.12,0.179c0,0.123-0.087,0.212-0.261,0.266c-0.174,0.054-0.473,0.081-0.897,0.081h-1.738
								c-0.348,0-0.615-0.033-0.798-0.098c-0.184-0.065-0.276-0.159-0.276-0.282c0-0.181,0.292-0.322,0.876-0.423
								c0.151-0.022,0.264-0.04,0.339-0.054c0.377-0.072,0.673-0.206,0.89-0.402c0.217-0.195,0.325-0.425,0.325-0.689
								c0-0.365-0.203-0.659-0.608-0.879c-0.405-0.221-0.942-0.331-1.611-0.331c-0.537,0-1.001,0.069-1.392,0.206
								c-0.391,0.138-0.699,0.34-0.925,0.608l-0.904,1.042c-0.443,0.528-1.024,0.916-1.745,1.164s-1.622,0.372-2.706,0.372
								c-1.234,0-2.242-0.176-3.023-0.529C180.421,381.522,179.983,381.042,179.889,380.434z"/>
						</g>
						<g>
							<path style="fill:#D18F37;" d="M179.889,380.559l-3.278-0.065c-0.424-0.007-0.732-0.043-0.926-0.109
								c-0.193-0.065-0.29-0.17-0.29-0.315c0-0.119,0.089-0.206,0.268-0.26c0.179-0.054,0.466-0.081,0.862-0.081h0.254l3.193,0.065
								c0.066-0.148,0.177-0.291,0.332-0.429c0.155-0.137,0.36-0.277,0.615-0.418c-0.217-0.051-0.377-0.107-0.48-0.168
								c-0.104-0.061-0.155-0.134-0.155-0.217c0-0.145,0.125-0.259,0.374-0.342c0.25-0.083,0.591-0.125,1.024-0.125h1.964
								c0.339,0,0.617,0.041,0.834,0.122c0.217,0.081,0.325,0.189,0.325,0.323c0,0.21-0.367,0.362-1.102,0.456
								c-0.226,0.025-0.382,0.047-0.466,0.065c-0.348,0.076-0.666,0.254-0.954,0.535c-0.287,0.28-0.431,0.569-0.431,0.865
								c0,0.34,0.207,0.614,0.622,0.822c0.414,0.208,0.951,0.312,1.611,0.312c0.584,0,1.062-0.074,1.434-0.223
								c0.372-0.148,0.789-0.478,1.25-0.988l0.834-0.95c0.33-0.365,0.869-0.657,1.618-0.874c0.749-0.217,1.59-0.326,2.522-0.326
								c1.215,0,2.195,0.162,2.939,0.486c0.744,0.324,1.173,0.773,1.286,1.349l1.074,0.022c0.386,0.011,0.676,0.051,0.869,0.119
								c0.193,0.069,0.29,0.163,0.29,0.282c0,0.123-0.087,0.217-0.261,0.282c-0.174,0.065-0.426,0.098-0.756,0.098h-0.169
								l-1.13-0.033c-0.094,0.134-0.2,0.265-0.318,0.393c-0.118,0.129-0.252,0.252-0.403,0.372c0.169,0.054,0.294,0.108,0.374,0.163
								c0.08,0.054,0.12,0.114,0.12,0.179c0,0.123-0.087,0.212-0.261,0.266c-0.174,0.054-0.473,0.081-0.897,0.081h-1.738
								c-0.348,0-0.615-0.032-0.798-0.098c-0.184-0.065-0.276-0.159-0.276-0.282c0-0.181,0.292-0.322,0.876-0.423
								c0.151-0.022,0.264-0.04,0.339-0.054c0.377-0.072,0.673-0.206,0.89-0.401c0.217-0.195,0.325-0.425,0.325-0.689
								c0-0.365-0.203-0.659-0.608-0.879c-0.405-0.221-0.942-0.331-1.611-0.331c-0.537,0-1.001,0.069-1.392,0.206
								s-0.699,0.34-0.925,0.608l-0.904,1.042c-0.443,0.528-1.024,0.916-1.745,1.164c-0.721,0.248-1.622,0.372-2.706,0.372
								c-1.234,0-2.242-0.176-3.023-0.529S179.983,381.167,179.889,380.559z"/>
						</g>
					</g>
				</g>
			</g>
		</g>
		<g>
			<g>
				<path style="fill:#EEB399;" d="M339.587,230.051c-4.872,0-10.003-0.483-15.242-1.681c-3.815-0.871-6.202-4.671-5.33-8.486
					c0.871-3.816,4.673-6.207,8.486-5.33c21.57,4.926,41.547-5.423,41.746-5.528c3.461-1.826,7.748-0.502,9.575,2.96
					c1.826,3.462,0.501,7.748-2.96,9.575C375.056,221.986,359.49,230.051,339.587,230.051z"/>
				<path style="fill:#AF374E;" d="M378.823,211.986c-1.827-3.462-6.114-4.786-9.575-2.96c-0.116,0.062-7,3.623-17.005,5.587
					c0.378,2.711,1.557,8.308,5.114,13.396c10.732-2.42,17.964-6.163,18.506-6.449C379.324,219.734,380.649,215.447,378.823,211.986
					z"/>
			</g>
			<path style="fill:#171E26;" d="M355.229,381.025l-4.498,3.817c0,0,12.95,2.726,24.4,0.681l-1.227-5.589L355.229,381.025z"/>
			<path style="fill:#171E26;" d="M400.076,380.343l-4.498,3.817c0,0,12.95,2.726,24.4,0.682l-1.227-5.589L400.076,380.343z"/>
			<path style="fill:#0A3759;" d="M365.582,267.982c0,0-16.791,76.013-11.947,114.2c0,0,11.84,4.493,20.989,0
				c0,0,2.252-74.54,14.092-98.063l10.664,96.94c0,0,6.275,5.614,19.729-1.125l-9.867-116.272L365.582,267.982z"/>
			<path style="fill:#062A3F;" d="M369.334,282.072l-8.899,12.49c-0.775,4.438-1.575,9.252-2.354,14.307l22.292,7.31
				c1.88-12.069,4.343-23.115,7.549-30.364L369.334,282.072z"/>
			<polygon style="fill:#062A3F;" points="388.925,286.018 392.687,320.218 414.652,327.421 411.525,290.57 			"/>
			<path style="fill:#06263A;" d="M388.715,284.367c-0.013,0-0.026-0.001-0.039-0.003l-1.24-0.195
				c-0.081-0.013-0.151-0.066-0.186-0.14c-2.387-5.109-2.621-12.185-2.623-12.255c-0.004-0.138,0.104-0.251,0.24-0.255
				c0.159,0.014,0.251,0.103,0.256,0.24c0.003,0.07,0.23,6.935,2.521,11.941l0.79,0.125c-0.163-1.606-0.822-8.613-0.278-12.096
				c0.022-0.135,0.155-0.22,0.284-0.207c0.135,0.021,0.228,0.148,0.207,0.284c-0.593,3.8,0.305,12.203,0.315,12.288
				c0.008,0.077-0.02,0.153-0.076,0.206C388.84,284.343,388.779,284.367,388.715,284.367z"/>
			<path style="fill:#E54C64;" d="M361.954,221.039l3.628,46.942c0,0,10.601,5.772,25.563,4.033
				c14.962-1.74,18.24-8.351,18.24-8.351s-2.585-46.06-3.02-46.516c-0.435-0.456-2.205-15.591-23.854-12.499
				C360.861,207.738,361.954,221.039,361.954,221.039z"/>
			<path style="fill:#AF374E;" d="M405.981,215.949l-13.436,0.826c0.053,0.213,5.718,7.444,14.994,15.741
				c-0.529-8.369-1.009-15.195-1.175-15.369C406.295,217.074,406.192,216.629,405.981,215.949z"/>
			<g>
				<polygon style="fill:#EEB399;" points="387.513,191.466 387.513,204.491 381.512,218.487 375.683,206.403 375.683,198.57 				
					"/>
			</g>
			<path style="fill:#CC957F;" d="M385.887,198.034l-10.204,3.381v4.169C381.377,204.823,385.887,198.034,385.887,198.034z"/>
			<path style="fill:#EEB399;" d="M379.149,203.339h-5.38c-4.6,0-8.364-3.764-8.364-8.364v-14.883c0-4.6,3.764-8.364,8.364-8.364
				h5.38c4.6,0,8.364,3.764,8.364,8.364v14.883C387.513,199.575,383.749,203.339,379.149,203.339z"/>
			<path style="fill:#4F3524;" d="M378.739,178.23c0,0,1.073,9.556,8.642,10.495c0,0,0.627-7.936,0.109-9.94
				C386.972,176.78,378.739,178.23,378.739,178.23z"/>
			<path style="fill:#06263A;" d="M394.034,286.277c-0.05,0-0.1-0.015-0.144-0.045c-4.138-2.928-12.864-2.213-12.951-2.205
				c-0.138,0.021-0.257-0.09-0.268-0.226c-0.012-0.137,0.089-0.257,0.226-0.269c0.364-0.033,8.995-0.74,13.281,2.294
				c0.112,0.079,0.138,0.234,0.059,0.346C394.187,286.242,394.111,286.277,394.034,286.277z"/>
			<path style="fill:#EEB399;" d="M390.09,189.967c0,1.497-1.213,2.71-2.71,2.71c-1.496,0-2.71-1.213-2.71-2.71
				s1.213-2.71,2.71-2.71C388.877,187.257,390.09,188.47,390.09,189.967z"/>
			
				<polyline style="fill:none;stroke:#8E263A;stroke-width:0.5669;stroke-linecap:round;stroke-linejoin:round;stroke-miterlimit:10;" points="
				374.665,206.794 374.329,220.365 381.598,219.018 389.44,220.943 388.333,204.977 			"/>
			
				<polyline style="fill:none;stroke:#8E263A;stroke-width:0.5669;stroke-linecap:round;stroke-linejoin:round;stroke-miterlimit:10;" points="
				381.003,219.128 381.598,226.477 383.761,226.477 			"/>
			<g>
				<path style="fill:#383838;" d="M437.015,318.316l-128.174-21.308c-4.854-0.807-8.164-5.438-7.358-10.292l11.027-66.331
					c0.807-4.854,5.438-8.165,10.292-7.358l128.174,21.308c4.854,0.807,8.165,5.438,7.358,10.292l-11.027,66.331
					C446.5,315.812,441.869,319.123,437.015,318.316z"/>
				
					<rect x="322.773" y="227.861" transform="matrix(0.9865 0.164 -0.164 0.9865 43.0698 -57.2809)" style="fill:#E4AF76;" width="91.378" height="8.71"/>
				
					<rect x="313.932" y="284.697" transform="matrix(0.9865 0.164 -0.164 0.9865 51.6708 -55.1112)" style="fill:#E4AF76;" width="91.378" height="1.393"/>
				
					<rect x="313.472" y="286.949" transform="matrix(0.9865 0.164 -0.164 0.9865 51.9489 -53.9736)" style="fill:#E4AF76;" width="78.795" height="1.393"/>
				
					<rect x="312.872" y="290.877" transform="matrix(0.9865 0.164 -0.164 0.9865 52.6381 -54.4662)" style="fill:#E4AF76;" width="86.651" height="1.393"/>
				
					<text transform="matrix(0.9865 0.164 -0.164 0.9865 315.2908 273.4217)" style="fill:#E4AF76; font-family:'Courier'; font-size:10.7721px;">123456 1234 764 456</text>
				<g>
					<path style="fill:#E4AF76;" d="M329.285,250.108c1.564,0.26,2.674,1.607,2.7,3.138l7.138,1.187l0.415-2.495
						c0.348-2.096-1.081-4.095-3.177-4.443l-12.496-2.077c-2.054-0.341-4.005,1.03-4.411,3.057L329.285,250.108z"/>
					<path style="fill:#E4AF76;" d="M330.796,253.64c0.187-1.126-0.577-2.193-1.702-2.381l-9.842-1.636l-0.679,4.084l9.842,1.636
						C329.541,255.53,330.609,254.766,330.796,253.64z"/>
					<path style="fill:#E4AF76;" d="M331.794,254.398c-0.52,1.441-2.007,2.357-3.571,2.097l-9.83-1.634
						c-0.272,2.049,1.131,3.978,3.184,4.319l12.496,2.077c2.095,0.348,4.095-1.081,4.443-3.177l0.415-2.496L331.794,254.398z"/>
				</g>
			</g>
			<g>
				<path style="fill:#EEB399;" d="M412.848,257.767c0,0,7.879,2.356,14.088,1.551l3.746-34.041
					c0.347-3.146-1.436-6.142-4.367-7.337l-26.525-10.822c-3.622-1.478-7.76,0.261-9.238,3.885c-1.479,3.623,0.261,7.76,3.885,9.238
					l21.573,8.802L412.848,257.767z"/>
				<path style="fill:#EEB399;" d="M426.833,261.16c-0.09,0.84-0.198,1.717-0.675,2.415c-0.477,0.698-1.445,1.143-2.209,0.762
					c-0.397-0.198-0.717-0.595-1.16-0.612c-0.557-0.021-0.913,0.553-1.365,0.875c-0.829,0.59-2.081,0.258-2.747-0.515
					c-0.22-0.256-0.421-0.571-0.748-0.657c-0.725-0.192-1.338,0.878-2.06,0.674c-0.553-0.157-0.704-0.958-1.253-1.129
					c-0.297-0.093-0.617,0.034-0.928,0.013c-0.521-0.034-0.938-0.489-1.092-0.985c-0.154-0.496-0.1-1.027-0.046-1.541
					c0.086-0.809,0.172-1.618,0.258-2.428c0.051-0.477,0.106-0.967,0.332-1.391c0.487-0.912,1.608-1.261,2.626-1.481
					c1.949-0.422,3.967-0.678,5.944-0.387c1.613,0.237,3.319,0.87,4.514,2.01C427.318,257.826,426.979,259.791,426.833,261.16z"/>
				<path style="fill:#E54C64;" d="M399.726,206.932c-3.689-1.506-7.904,0.266-9.41,3.957c-1.506,3.69,0.266,7.904,3.957,9.41
					l18.465,7.534c2.506-4.979,3.516-10.354,3.921-13.992L399.726,206.932z"/>
			</g>
			<path style="fill:#EEB399;" d="M309.315,221.097c-0.186,0.546-0.372,1.096-0.457,1.666c-0.301,2.023,0.772,4.1,2.414,5.319
				c0.467,0.347,0.986,0.638,1.552,0.775c0.566,0.137,1.184,0.11,1.704-0.151c0.319-0.16,0.616-0.448,0.623-0.805
				c0.004-0.204-0.088-0.398-0.196-0.571c-0.422-0.672-1.106-1.129-1.768-1.565c1.035,0.275,2.198,0.536,3.126,0.003
				c0.313-0.18,0.589-0.465,0.652-0.821c0.063-0.351-0.094-0.713-0.33-0.98c-0.237-0.267-0.547-0.456-0.853-0.641
				c-0.253-0.153-0.505-0.305-0.757-0.458c0.463,0.104,0.941,0.187,1.41,0.119c0.47-0.068,0.935-0.312,1.166-0.726
				c0.354-0.636,0.06-1.446-0.38-2.027c-0.328-0.433-0.734-0.807-1.193-1.097c-0.401-0.253-0.84-0.447-1.229-0.721
				c-0.67-0.474-0.931-1.275-0.52-1.999c0.196-0.346,0.479-0.632,0.759-0.914c-1.412,0.004-2.793,0.609-3.806,1.582
				C310.085,218.187,309.812,219.637,309.315,221.097z"/>
			<path style="fill:#441F04;" d="M364.447,170.305c0,0-3.091,7.505,6.698,8.406c9.789,0.902,9.552-1.488,16.368,1.381
				c0,0,0.416-9.597-5.915-8.98C375.267,171.728,365.349,165.376,364.447,170.305z"/>
		</g>
	</g>
</g>
</svg>
